<svg width="37" height="41" viewBox="0 0 37 41" fill="none" xmlns="http://www.w3.org/2000/svg">
<path d="M33.8459 4.07607H29.2306V2.53254C29.2363 2.32696 29.2007 2.12232 29.1259 1.93072C29.0512 1.73912 28.9388 1.56445 28.7954 1.41703C28.652 1.26961 28.4805 1.15243 28.2911 1.07241C28.1016 0.992397 27.898 0.951172 27.6924 0.951172C27.4867 0.951172 27.2831 0.992397 27.0937 1.07241C26.9042 1.15243 26.7327 1.26961 26.5893 1.41703C26.4459 1.56445 26.3335 1.73912 26.2588 1.93072C26.184 2.12232 26.1484 2.32696 26.1541 2.53254V4.07136H10.7694V2.53254C10.7583 2.13194 10.5914 1.75146 10.3041 1.47203C10.0169 1.1926 9.63193 1.03626 9.23118 1.03626C8.83042 1.03626 8.44548 1.1926 8.15821 1.47203C7.87094 1.75146 7.70402 2.13194 7.69294 2.53254V4.07136H3.07647C2.26083 4.0723 1.47886 4.39672 0.902109 4.97347C0.325361 5.55022 0.000934123 6.33219 0 7.14783V37.9231C-5.35919e-07 38.7394 0.324017 39.5223 0.900865 40.0998C1.47771 40.6773 2.26022 41.0022 3.07647 41.0031H33.8459C34.6615 41.0022 35.4435 40.6778 36.0202 40.101C36.597 39.5243 36.9214 38.7423 36.9224 37.9267V7.15372C36.9217 6.33787 36.5974 5.5556 36.0207 4.97859C35.4439 4.40159 34.6617 4.077 33.8459 4.07607ZM24.1647 30.6808C24.4394 30.972 24.5897 31.3588 24.5839 31.7591C24.578 32.1594 24.4164 32.5416 24.1333 32.8247C23.8503 33.1078 23.468 33.2694 23.0677 33.2753C22.6675 33.2811 22.2806 33.1307 21.9894 32.8561L18.46 29.3267L14.9306 32.8561C14.7893 33.0058 14.6195 33.1257 14.431 33.2087C14.2426 33.2916 14.0395 33.3359 13.8336 33.3389C13.6278 33.3419 13.4234 33.3036 13.2326 33.2262C13.0419 33.1488 12.8686 33.0339 12.723 32.8884C12.5774 32.7428 12.4626 32.5695 12.3852 32.3787C12.3078 32.1879 12.2694 31.9836 12.2725 31.7777C12.2755 31.5719 12.3198 31.3687 12.4027 31.1803C12.4856 30.9919 12.6055 30.822 12.7553 30.6808L16.2847 27.1514L12.7553 23.622C12.4806 23.3307 12.3303 22.9439 12.3361 22.5436C12.342 22.1433 12.5036 21.7611 12.7867 21.478C13.0697 21.1949 13.452 21.0333 13.8523 21.0275C14.2525 21.0216 14.6394 21.172 14.9306 21.4467L18.46 24.9761L21.9894 21.4467C22.2806 21.172 22.6675 21.0216 23.0677 21.0275C23.468 21.0333 23.8503 21.1949 24.1333 21.478C24.4164 21.7611 24.578 22.1433 24.5839 22.5436C24.5897 22.9439 24.4394 23.3307 24.1647 23.622L20.6353 27.1514L24.1647 30.6808ZM33.8459 13.3067H3.07647V7.15372H7.69177V8.69254C7.70285 9.09314 7.86977 9.47362 8.15703 9.75305C8.4443 10.0325 8.82925 10.1888 9.23 10.1888C9.63076 10.1888 10.0157 10.0325 10.303 9.75305C10.5902 9.47362 10.7572 9.09314 10.7682 8.69254V7.15372H26.1541V8.69254C26.1652 9.09314 26.3321 9.47362 26.6194 9.75305C26.9067 10.0325 27.2916 10.1888 27.6924 10.1888C28.0931 10.1888 28.4781 10.0325 28.7653 9.75305C29.0526 9.47362 29.2195 9.09314 29.2306 8.69254V7.15372H33.8459V13.3067Z" fill="#649AE9"/>
</svg>
