<svg width="54" height="54" viewBox="0 0 54 54" fill="none" xmlns="http://www.w3.org/2000/svg">
<circle opacity="0.1" cx="27" cy="27" r="27" fill="#649AE9"/>
<path d="M39 33.8571V39H15V33.8571C15.4018 33.8571 15.7812 33.7946 16.1384 33.6696C16.4955 33.5446 16.7589 33.4219 16.9286 33.3013C17.0982 33.1808 17.308 33.0134 17.558 32.7991C17.8259 32.558 18.0558 32.3884 18.2478 32.2902C18.4397 32.192 18.692 32.1429 19.0045 32.1429C19.317 32.1429 19.5647 32.192 19.7478 32.2902C19.9308 32.3884 20.1652 32.558 20.4509 32.7991C20.7098 33.0223 20.9196 33.192 21.0804 33.308C21.2411 33.4241 21.5 33.5446 21.8571 33.6696C22.2143 33.7946 22.5982 33.8571 23.0089 33.8571C23.4107 33.8571 23.7902 33.7924 24.1473 33.6629C24.5045 33.5335 24.7634 33.4129 24.9241 33.3013C25.0848 33.1897 25.2991 33.0223 25.567 32.7991C25.7545 32.6295 25.8996 32.5089 26.0022 32.4375C26.1049 32.3661 26.2433 32.2991 26.4174 32.2366C26.5915 32.1741 26.7857 32.1429 27 32.1429C27.3125 32.1429 27.5647 32.192 27.7567 32.2902C27.9487 32.3884 28.1786 32.558 28.4464 32.7991C28.6964 33.0134 28.9062 33.1808 29.0759 33.3013C29.2455 33.4219 29.5089 33.5446 29.8661 33.6696C30.2232 33.7946 30.6027 33.8571 31.0045 33.8571C31.4062 33.8571 31.7857 33.7946 32.1429 33.6696C32.5 33.5446 32.7634 33.4219 32.933 33.3013C33.1027 33.1808 33.3125 33.0134 33.5625 32.7991C33.8304 32.558 34.0603 32.3884 34.2522 32.2902C34.4442 32.192 34.6964 32.1429 35.0089 32.1429C35.3125 32.1429 35.5603 32.192 35.7522 32.2902C35.9442 32.3884 36.1741 32.558 36.442 32.7991C36.692 33.0134 36.9018 33.1808 37.0714 33.3013C37.2411 33.4219 37.5045 33.5446 37.8616 33.6696C38.2188 33.7946 38.5982 33.8571 39 33.8571ZM39 29.5714V32.1429C38.6875 32.1429 38.4397 32.0938 38.2567 31.9955C38.0737 31.8973 37.8393 31.7277 37.5536 31.4866C37.2946 31.2634 37.0848 31.0938 36.9241 30.9777C36.7634 30.8616 36.5045 30.7411 36.1473 30.6161C35.7902 30.4911 35.4107 30.4286 35.0089 30.4286C34.5982 30.4286 34.2143 30.4911 33.8571 30.6161C33.5 30.7411 33.2411 30.8616 33.0804 30.9777C32.9196 31.0938 32.7098 31.2634 32.4509 31.4866C32.2545 31.6562 32.1071 31.7768 32.0089 31.8482C31.9107 31.9196 31.7723 31.9866 31.5938 32.0491C31.4152 32.1116 31.2188 32.1429 31.0045 32.1429C30.692 32.1429 30.4397 32.0938 30.2478 31.9955C30.0558 31.8973 29.8259 31.7277 29.558 31.4866C29.2991 31.2634 29.0893 31.0938 28.9286 30.9777C28.7679 30.8616 28.5089 30.7411 28.1518 30.6161C27.7946 30.4911 27.4107 30.4286 27 30.4286C26.5982 30.4286 26.2188 30.4933 25.8616 30.6228C25.5045 30.7522 25.2455 30.8728 25.0848 30.9844C24.9241 31.096 24.7098 31.2634 24.442 31.4866C24.2545 31.6562 24.1094 31.7768 24.0067 31.8482C23.904 31.9196 23.7656 31.9866 23.5915 32.0491C23.4174 32.1116 23.2232 32.1429 23.0089 32.1429C22.6964 32.1429 22.4442 32.0938 22.2522 31.9955C22.0603 31.8973 21.8304 31.7277 21.5625 31.4866C21.3125 31.2723 21.1027 31.1049 20.933 30.9844C20.7634 30.8638 20.5 30.7411 20.1429 30.6161C19.7857 30.4911 19.4062 30.4286 19.0045 30.4286C18.5938 30.4286 18.2098 30.4911 17.8527 30.6161C17.4955 30.7411 17.2366 30.8616 17.0759 30.9777C16.9152 31.0938 16.7054 31.2634 16.4464 31.4866C16.1786 31.7277 15.9487 31.8973 15.7567 31.9955C15.5647 32.0938 15.3125 32.1429 15 32.1429V29.5714C15 28.8571 15.25 28.25 15.75 27.75C16.25 27.25 16.8571 27 17.5714 27H18.4286V21H21.8571V27H25.2857V21H28.7143V27H32.1429V21H35.5714V27H36.4286C37.1429 27 37.75 27.25 38.25 27.75C38.75 28.25 39 28.8571 39 29.5714ZM21.8571 18C21.8571 18.6875 21.6964 19.2165 21.375 19.5871C21.0536 19.9576 20.6429 20.1429 20.1429 20.1429C19.6696 20.1429 19.2656 19.9754 18.9308 19.6406C18.596 19.3058 18.4286 18.9018 18.4286 18.4286C18.4286 18.1696 18.471 17.942 18.5558 17.7455C18.6406 17.5491 18.7455 17.3973 18.8705 17.2902C18.9955 17.183 19.1339 17.058 19.2857 16.9152C19.4375 16.7723 19.5759 16.6317 19.7009 16.4933C19.8259 16.3549 19.9308 16.1562 20.0156 15.8973C20.1004 15.6384 20.1429 15.3393 20.1429 15C20.4821 15 20.8527 15.3304 21.2545 15.9911C21.6562 16.6518 21.8571 17.3214 21.8571 18ZM28.7143 18C28.7143 18.6875 28.5536 19.2165 28.2321 19.5871C27.9107 19.9576 27.5 20.1429 27 20.1429C26.5268 20.1429 26.1228 19.9754 25.7879 19.6406C25.4531 19.3058 25.2857 18.9018 25.2857 18.4286C25.2857 18.1696 25.3281 17.942 25.4129 17.7455C25.4978 17.5491 25.6027 17.3973 25.7277 17.2902C25.8527 17.183 25.9911 17.058 26.1429 16.9152C26.2946 16.7723 26.433 16.6317 26.558 16.4933C26.683 16.3549 26.7879 16.1562 26.8728 15.8973C26.9576 15.6384 27 15.3393 27 15C27.3393 15 27.7098 15.3304 28.1116 15.9911C28.5134 16.6518 28.7143 17.3214 28.7143 18ZM35.5714 18C35.5714 18.6875 35.4107 19.2165 35.0893 19.5871C34.7679 19.9576 34.3571 20.1429 33.8571 20.1429C33.3839 20.1429 32.9799 19.9754 32.6451 19.6406C32.3103 19.3058 32.1429 18.9018 32.1429 18.4286C32.1429 18.1696 32.1853 17.942 32.2701 17.7455C32.3549 17.5491 32.4598 17.3973 32.5848 17.2902C32.7098 17.183 32.8482 17.058 33 16.9152C33.1518 16.7723 33.2902 16.6317 33.4152 16.4933C33.5402 16.3549 33.6451 16.1562 33.7299 15.8973C33.8147 15.6384 33.8571 15.3393 33.8571 15C34.1964 15 34.567 15.3304 34.9688 15.9911C35.3705 16.6518 35.5714 17.3214 35.5714 18Z" fill="#649AE9"/>
</svg>
