<svg width="103" height="49" viewBox="0 0 103 49" fill="none" xmlns="http://www.w3.org/2000/svg">
<path d="M17.8849 0.0216141C16.5773 0.164093 15.3488 0.920811 14.6237 2.03214C14.2881 2.54823 14.0981 3.03265 13.9778 3.67538L13.9082 4.05532L13.3857 4.20414C10.6058 4.99884 8.24704 6.30648 6.05921 8.25684C5.64444 8.62412 4.90356 9.3745 4.60277 9.72595C4.49828 9.84626 4.38747 9.97607 4.35581 10.0109C3.93471 10.4763 3.07667 11.6605 2.64924 12.3697C2.50676 12.6103 2.4751 12.6642 2.15531 13.2404C1.39226 14.6145 0.702038 16.5174 0.360091 18.2018C0.290435 18.5501 0.15429 19.3701 0.106797 19.7469C-0.0483458 20.9754 -0.0325149 22.9226 0.141625 24.1637C0.242942 24.8856 0.246109 24.9046 0.347426 25.4618C0.809688 27.9821 1.77221 30.9583 3.01018 33.7097C3.06084 33.8237 3.14949 34.0137 3.20332 34.1372C3.42178 34.6248 4.35897 36.4801 4.67559 37.0469C5.7046 38.9054 6.72094 40.479 7.8576 41.9735C9.06708 43.5597 10.5109 45.1016 11.79 46.1686C12.3852 46.6657 13.1578 47.2167 13.7942 47.5998C15.0258 48.3375 16.2733 48.7966 17.4764 48.9549C17.9324 49.015 18.8189 49.015 19.2748 48.9549C21.0416 48.7238 22.8653 47.8531 24.7238 46.3618C25.4774 45.757 26.7692 44.5096 27.4816 43.699C28.8842 42.1001 30.2361 40.2162 31.4298 38.1899C32.3923 36.5593 33.1744 35.0205 33.9437 33.2506C35.4793 29.7172 36.4513 26.2217 36.7078 23.312C36.7711 22.606 36.7711 21.1084 36.7078 20.3738C36.4482 17.2836 35.416 14.3232 33.7094 11.7523C33.0034 10.6916 32.3511 9.89692 31.4045 8.94707C30.6857 8.22835 30.3406 7.91806 29.6567 7.37981C29.0963 6.94288 28.9633 6.87639 28.6341 6.87639C28.4219 6.87639 28.3523 6.88905 28.2003 6.96504C27.8552 7.13285 27.6842 7.4178 27.6842 7.82624C27.6842 8.04154 27.6969 8.10803 27.7729 8.26318C27.8235 8.36132 27.9153 8.48797 27.9787 8.53863C28.042 8.58929 28.2953 8.78876 28.5391 8.97556C30.138 10.223 31.5438 11.8315 32.5886 13.614C33.5606 15.2731 34.2192 17.0462 34.5675 18.9395C34.672 19.5031 34.6783 19.5506 34.7764 20.4435C34.8334 20.9754 34.8334 22.7294 34.7764 23.2772C34.6878 24.1131 34.6783 24.189 34.5675 24.8603C34.1685 27.2792 33.1775 30.3726 31.9649 32.9815C31.9047 33.1113 31.8097 33.3171 31.7559 33.4406C31.5913 33.7952 30.9137 35.144 30.7016 35.5271C30.5971 35.7203 30.4673 35.9577 30.4134 36.0527C29.8119 37.1577 28.9158 38.5825 28.0831 39.7571C26.5475 41.926 24.8505 43.775 23.2326 45.0352C21.9186 46.061 20.6901 46.6847 19.4268 46.9634C19.0754 47.0425 18.9835 47.052 18.3756 47.052C17.7677 47.052 17.6759 47.0425 17.3245 46.9634C16.5361 46.7892 15.8269 46.5138 15.0765 46.0863C11.9958 44.3386 8.68714 40.4505 5.97056 35.3878C5.56529 34.6279 4.98271 33.4438 4.68192 32.7599C4.6091 32.5952 4.52361 32.4021 4.49195 32.3325C4.21333 31.7182 3.65608 30.2839 3.36796 29.4354C2.73156 27.5769 2.33262 25.9653 2.07299 24.2112C1.89569 23.0112 1.86086 21.4788 1.98751 20.301C2.16165 18.6324 2.50993 17.2266 3.121 15.71C4.20066 13.0346 6.06238 10.6061 8.41801 8.80143C9.56733 7.92439 11.0079 7.10435 12.2649 6.61676C12.4232 6.55661 12.6354 6.47429 12.7398 6.43312C13.0026 6.33181 13.9177 6.04685 14.0538 6.02469L14.1646 6.00569L14.3768 6.43946C14.6269 6.96188 14.877 7.30066 15.3108 7.71859C15.9598 8.33916 16.7292 8.7286 17.6253 8.89008C17.907 8.9439 18.7208 8.95023 19.0247 8.90274C21.4342 8.53863 23.1471 6.26215 22.8083 3.88118C22.574 2.23161 21.5418 0.914478 20.0126 0.306572C19.392 0.0627747 18.5498 -0.0512085 17.8849 0.0216141ZM19.1355 2.03847C19.5535 2.18411 19.8384 2.35509 20.1265 2.63055C20.6553 3.13713 20.9244 3.75454 20.9244 4.45426C20.9244 5.19198 20.6648 5.79356 20.1297 6.30648C19.7561 6.66425 19.373 6.87006 18.8917 6.96821C17.5366 7.24683 16.2448 6.41096 15.887 5.02417C15.7572 4.51759 15.8205 3.95084 16.0675 3.41576C16.3651 2.76986 16.9414 2.25377 17.6158 2.03847C17.9514 1.93082 17.9894 1.92449 18.4706 1.93715C18.8252 1.94665 18.9171 1.95932 19.1355 2.03847Z" fill="url(#paint0_linear_14298_12822)"/>
<path d="M5.07839 16.6092C4.68578 16.7105 4.40082 17.0366 4.35017 17.4355C4.34067 17.5305 4.347 17.844 4.36283 18.1321C4.49264 20.1205 5.17654 21.9283 6.40501 23.5146C6.74063 23.9484 7.50368 24.7241 7.93428 25.0724C9.04877 25.9652 10.3564 26.6143 11.7115 26.9436C12.6994 27.1874 13.988 27.295 14.3521 27.1652C14.6624 27.0544 14.9062 26.7568 14.9695 26.4085C15.0044 26.2249 14.9664 25.5125 14.8935 24.9552C14.5389 22.2798 13.016 19.8102 10.7775 18.2841C10.0208 17.768 9.23874 17.3722 8.4377 17.1063C8.00077 16.9606 7.38653 16.796 7.12057 16.7548C7.04142 16.7422 6.9496 16.7263 6.91477 16.72C6.40185 16.6218 5.27786 16.5553 5.07839 16.6092Z" fill="url(#paint1_linear_14298_12822)"/>
<path d="M30.4532 16.6279C30.2696 16.6501 30.0701 16.6754 30.0099 16.688C29.9498 16.6975 29.8358 16.7134 29.7566 16.726C29.6775 16.7355 29.4432 16.7862 29.2342 16.8337C27.0749 17.3403 25.1404 18.5909 23.7757 20.3608C22.5568 21.9439 21.9014 23.7328 21.7779 25.8098C21.7399 26.4652 21.8 26.7058 22.0755 26.956C22.3066 27.1681 22.4713 27.2188 22.905 27.2188C23.6586 27.2188 24.7383 27.0541 25.5108 26.8166C26.5493 26.5032 27.4833 26.0441 28.3572 25.4204C29.1772 24.8315 30.0004 24.0146 30.5767 23.2199C31.3176 22.1909 31.8875 20.9402 32.1598 19.7402C32.3276 18.9994 32.4321 18.1097 32.4099 17.5999C32.3972 17.2358 32.3212 17.0522 32.1091 16.8432C31.8906 16.6342 31.7038 16.5804 31.2036 16.5836C30.9725 16.5867 30.6368 16.6057 30.4532 16.6279Z" fill="url(#paint2_linear_14298_12822)"/>
<path d="M50.2137 16.0374C50.1883 16.1261 50.0015 16.6548 49.954 16.7751C49.9287 16.8448 49.7007 17.478 49.4475 18.1841C49.1942 18.8901 48.963 19.536 48.9314 19.6247C48.8997 19.7102 48.7667 20.0806 48.6337 20.4479C48.5039 20.812 48.3013 21.3756 48.1873 21.6985C48.0702 22.0215 47.7852 22.8194 47.5477 23.4716C47.3135 24.1238 47.095 24.7349 47.0602 24.8267C47.0285 24.9185 47 25.0072 47 25.023C47 25.042 47.3609 25.0547 47.9435 25.0547H48.8839L49.0865 24.4594C49.1973 24.1333 49.3303 23.7502 49.3841 23.6046L49.476 23.345H51.2743H53.0696L53.1202 23.4779C53.1487 23.5539 53.2817 23.937 53.4178 24.3328L53.6648 25.0547H54.6273C55.5297 25.0547 55.5867 25.0515 55.5645 24.9977C55.5518 24.9692 55.4062 24.5671 55.2416 24.1048C55.0769 23.6426 54.8426 22.9872 54.7191 22.6484C54.4532 21.9075 54.2854 21.4389 54.1397 21.0336C54.0827 20.869 53.8168 20.1344 53.554 19.4031C52.8131 17.345 52.7339 17.1202 52.5725 16.6643C52.4902 16.4269 52.3983 16.1831 52.373 16.1166L52.3223 15.9994H51.2743C50.4638 15.9994 50.2232 16.0089 50.2137 16.0374ZM51.3788 18.412C51.4295 18.5577 51.5308 18.8521 51.6068 19.0706C51.6828 19.2891 51.8189 19.6785 51.9076 19.9413C51.9994 20.2009 52.1767 20.7139 52.3033 21.0811C52.43 21.4452 52.544 21.7777 52.5535 21.8157L52.5756 21.8885H51.2775C50.5619 21.8885 49.9762 21.8853 49.9762 21.879C49.9762 21.8695 50.0649 21.6131 50.5904 20.0838C50.8279 19.3967 51.0749 18.6812 51.1414 18.4912C51.2047 18.3044 51.2648 18.1524 51.2743 18.1524C51.2838 18.1524 51.3313 18.2696 51.3788 18.412Z" fill="url(#paint3_linear_14298_12822)"/>
<path d="M82.6211 20.5271V25.0547H85.2332H87.8453V24.3106V23.5666H86.1356H84.4258V22.3793V21.192H85.9456H87.4653V20.4701V19.7513H85.9551H84.4416L84.4321 18.6178L84.4258 17.4875H86.1356H87.8453V16.7435V15.9994H85.2332H82.6211V20.5271Z" fill="url(#paint4_linear_14298_12822)"/>
<path d="M94.9375 20.5271V25.0547H95.8399H96.7422L96.7486 21.9772L96.7581 18.8996L97.7111 20.3371C98.2335 21.1286 99.1517 22.5154 99.7501 23.4178L100.833 25.0547L101.732 25.0484L102.631 25.0389V20.5271V16.0153L101.729 16.0058L100.827 15.9994V19.0928V22.1893L100.437 21.6036C100.225 21.2806 99.6899 20.4701 99.2467 19.7988C98.8034 19.1276 98.0562 18.0004 97.5876 17.2881L96.7359 15.9994H95.8367H94.9375V20.5271Z" fill="url(#paint5_linear_14298_12822)"/>
<path d="M62.2266 20.5429V25.0547H64.617H67.0075V24.3423V23.6299H65.5194H64.0313V19.8305V16.0311H63.1289H62.2266V20.5429Z" fill="url(#paint6_linear_14298_12822)"/>
<path d="M73.5977 20.5429V25.0547H74.5H75.4024V20.5429V16.0311H74.5H73.5977V20.5429Z" fill="url(#paint7_linear_14298_12822)"/>
<path d="M56.7983 30.1843C56.2506 30.2951 55.8358 30.6623 55.6522 31.1943C55.573 31.4349 55.5572 31.9193 55.6237 32.1694C55.801 32.8343 56.412 33.2871 57.1308 33.2871C57.7133 33.2871 58.2516 32.9768 58.4701 32.5177C58.5175 32.4164 58.5555 32.3278 58.5555 32.3214C58.5555 32.3119 58.3909 32.3056 58.1914 32.3056C57.9793 32.3056 57.8273 32.3183 57.8273 32.3373C57.8273 32.4006 57.6278 32.5874 57.4854 32.6539C57.3144 32.7362 57.0294 32.752 56.8236 32.6919C56.6432 32.638 56.3962 32.4069 56.3044 32.2043C56.2411 32.0618 56.2284 31.989 56.2284 31.704C56.2284 31.4222 56.2411 31.3526 56.3012 31.2386C56.4817 30.8966 56.7002 30.751 57.0706 30.7288C57.3904 30.7098 57.6152 30.8048 57.7703 31.0201L57.8716 31.1658H58.2136C58.4257 31.1658 58.5555 31.1531 58.5555 31.1341C58.5555 31.0486 58.3561 30.7162 58.2294 30.5895C57.8875 30.2507 57.3017 30.0829 56.7983 30.1843Z" fill="url(#paint8_linear_14298_12822)"/>
<path d="M72.0467 30.1859C71.7047 30.2524 71.309 30.5183 71.1032 30.8223C70.8974 31.1294 70.8594 31.2687 70.8594 31.7183C70.8625 32.0761 70.872 32.1521 70.9354 32.304C71.176 32.8835 71.6762 33.2412 72.3 33.2761C72.6324 33.2982 72.8667 33.2507 73.1517 33.1083C73.9021 32.7346 74.1997 31.7563 73.8039 30.9774C73.6931 30.7526 73.4081 30.4613 73.1928 30.3473C72.8667 30.1732 72.4298 30.1099 72.0467 30.1859ZM72.7433 30.7684C72.9554 30.8381 73.1074 30.9806 73.2245 31.2212C73.3195 31.4143 73.329 31.4587 73.329 31.7183C73.329 31.9621 73.3132 32.0318 73.2372 32.1964C73.0757 32.5573 72.8129 32.722 72.4108 32.722C72.015 32.722 71.7237 32.5415 71.5654 32.1932C71.4609 31.9653 71.4609 31.4713 71.5654 31.2434C71.7712 30.7969 72.243 30.607 72.7433 30.7684Z" fill="url(#paint9_linear_14298_12822)"/>
<path d="M81.1389 30.1965C80.5468 30.3422 80.0782 30.8646 79.9896 31.482C79.8978 32.1152 80.1859 32.7516 80.6988 33.0619C81.1674 33.3437 81.8101 33.3627 82.3072 33.1094C82.5257 32.9986 82.8391 32.682 82.9436 32.4635C83.0386 32.2704 83.1241 31.9158 83.1241 31.7195C83.1241 31.5232 83.0386 31.1686 82.9468 30.9849C82.7727 30.624 82.3864 30.3137 81.9874 30.2092C81.7436 30.1459 81.3732 30.1396 81.1389 30.1965ZM81.9748 30.8076C82.1331 30.8804 82.3516 31.1432 82.4149 31.3332C82.4497 31.4345 82.4687 31.5865 82.4687 31.7353C82.4624 32.1596 82.2882 32.4794 81.9779 32.6345C81.8418 32.7042 81.769 32.7168 81.5537 32.7168C81.2212 32.7168 81.0629 32.6535 80.8729 32.4382C80.6766 32.2197 80.6102 32.0076 80.6292 31.6467C80.6576 31.1084 80.9363 30.7823 81.427 30.7253C81.636 30.7031 81.807 30.7285 81.9748 30.8076Z" fill="url(#paint10_linear_14298_12822)"/>
<path d="M86.4337 30.2001C86.1519 30.2602 85.9271 30.3869 85.7087 30.6085C85.4902 30.827 85.3635 31.0645 85.2939 31.3811C85.2401 31.6502 85.2401 31.7927 85.2971 32.0681C85.4554 32.8122 86.0601 33.2871 86.8453 33.2871C87.4184 33.2871 87.9661 32.9483 88.2163 32.4417C88.2954 32.2803 88.3049 32.2169 88.3144 31.9003L88.3271 31.5457H87.5007H86.6743V31.7832V32.0206H87.1999H87.7223L87.7002 32.0903C87.6179 32.3563 87.4817 32.5304 87.2727 32.6349C87.0416 32.7489 86.6712 32.752 86.4369 32.6412C86.2342 32.5494 86.0284 32.3183 85.9588 32.1093C85.886 31.8845 85.9081 31.4222 86.0031 31.2386C86.1108 31.0296 86.2469 30.8966 86.4242 30.8207C86.7947 30.6592 87.1303 30.7035 87.3899 30.9505L87.5545 31.1056L87.906 31.0961L88.2574 31.0866L88.1783 30.9188C88.0801 30.7098 87.8142 30.4375 87.5925 30.3267C87.2696 30.1653 86.8232 30.1146 86.4337 30.2001Z" fill="url(#paint11_linear_14298_12822)"/>
<path d="M51.5586 31.7203V33.2559H52.4451H53.3317V33.0026V32.7493H52.7459H52.1602V32.3535V31.9577L52.6763 31.9514L53.1892 31.9419L53.1987 31.6949L53.2082 31.4511H52.6826H52.1602V31.0712V30.6913H52.7459H53.3317V30.438V30.1847H52.4451H51.5586V31.7203Z" fill="url(#paint12_linear_14298_12822)"/>
<path d="M62.8611 30.8274V31.4511L62.2057 31.4448L61.5471 31.4353L61.5376 30.8242L61.5313 30.2163H61.2305H60.9297V31.7361V33.2559H61.2305H61.5313L61.5376 32.6131L61.5471 31.9736L62.2057 31.9641L62.8611 31.9577V32.6068V33.2559H63.1618H63.4626V31.7393V30.2195L63.1618 30.21L62.8611 30.2005V30.8274Z" fill="url(#paint13_linear_14298_12822)"/>
<path d="M65.9336 31.7203V33.2559H66.2344H66.5352L66.5415 32.2269L66.551 31.1947L67.1526 32.1034C67.485 32.6036 67.7858 33.0691 67.827 33.1355L67.8998 33.2559H68.2164H68.5299V31.7203V30.1847H68.2291H67.9283L67.9251 31.2358C67.9251 32.0622 67.9156 32.2775 67.8871 32.2332C67.865 32.2015 67.5547 31.7298 67.1937 31.182L66.5352 30.1847H66.2344H65.9336V31.7203Z" fill="url(#paint14_linear_14298_12822)"/>
<path d="M76.2761 30.2068C76.2634 30.2163 76.2539 30.9097 76.2539 31.7424V33.2559H77.0771H77.9003V33.0184V32.7809H77.3937H76.8871V31.4828V30.1847H76.5927C76.428 30.1847 76.2856 30.1942 76.2761 30.2068Z" fill="url(#paint15_linear_14298_12822)"/>
<path d="M90.375 30.2068C90.375 30.2163 90.4953 30.457 90.641 30.7356C90.7866 31.0174 91.0209 31.467 91.1634 31.7393L91.4198 32.2364V32.7461V33.2559H91.7206H92.0214V32.7271V32.1984L92.528 31.2263C92.8066 30.6913 93.0346 30.2385 93.0346 30.2195C93.0346 30.1942 92.9333 30.1847 92.699 30.191L92.3634 30.2005L92.0531 30.8654C91.8821 31.2295 91.7301 31.5303 91.7175 31.5303C91.7016 31.5303 91.5592 31.2453 91.3945 30.8971C91.233 30.5488 91.0842 30.248 91.0652 30.2258C91.0304 30.1815 90.375 30.1657 90.375 30.2068Z" fill="url(#paint16_linear_14298_12822)"/>
<path d="M47 30.4538V30.6913H47.4116H47.8232V31.9736V33.2559H48.1398H48.4564V31.9736V30.6913H48.8522H49.248V30.4538V30.2163H48.124H47V30.4538Z" fill="url(#paint17_linear_14298_12822)"/>
<defs>
<linearGradient id="paint0_linear_14298_12822" x1="2.98007" y1="16.2746" x2="41.5919" y2="41.9752" gradientUnits="userSpaceOnUse">
<stop stop-color="#3389C0"/>
<stop offset="1" stop-color="#2A2563"/>
</linearGradient>
<linearGradient id="paint1_linear_14298_12822" x1="5.20813" y1="20.1208" x2="14.2249" y2="28.1266" gradientUnits="userSpaceOnUse">
<stop stop-color="#3389C0"/>
<stop offset="1" stop-color="#2A2563"/>
</linearGradient>
<linearGradient id="paint2_linear_14298_12822" x1="22.6307" y1="20.1158" x2="31.6517" y2="28.1282" gradientUnits="userSpaceOnUse">
<stop stop-color="#3389C0"/>
<stop offset="1" stop-color="#2A2563"/>
</linearGradient>
<linearGradient id="paint3_linear_14298_12822" x1="47.6947" y1="19.007" x2="55.3128" y2="25.4033" gradientUnits="userSpaceOnUse">
<stop stop-color="#3389C0"/>
<stop offset="1" stop-color="#2A2563"/>
</linearGradient>
<linearGradient id="paint4_linear_14298_12822" x1="83.0447" y1="19.007" x2="89.3196" y2="22.2194" gradientUnits="userSpaceOnUse">
<stop stop-color="#3389C0"/>
<stop offset="1" stop-color="#2A2563"/>
</linearGradient>
<linearGradient id="paint5_linear_14298_12822" x1="95.5613" y1="19.007" x2="102.998" y2="24.6136" gradientUnits="userSpaceOnUse">
<stop stop-color="#3389C0"/>
<stop offset="1" stop-color="#2A2563"/>
</linearGradient>
<linearGradient id="paint6_linear_14298_12822" x1="62.6142" y1="19.0282" x2="68.5498" y2="21.8187" gradientUnits="userSpaceOnUse">
<stop stop-color="#3389C0"/>
<stop offset="1" stop-color="#2A2563"/>
</linearGradient>
<linearGradient id="paint7_linear_14298_12822" x1="73.744" y1="19.0282" x2="76.3963" y2="19.4989" gradientUnits="userSpaceOnUse">
<stop stop-color="#3389C0"/>
<stop offset="1" stop-color="#2A2563"/>
</linearGradient>
<linearGradient id="paint8_linear_14298_12822" x1="55.8231" y1="31.1953" x2="58.4597" y2="33.4163" gradientUnits="userSpaceOnUse">
<stop stop-color="#3389C0"/>
<stop offset="1" stop-color="#2A2563"/>
</linearGradient>
<linearGradient id="paint9_linear_14298_12822" x1="71.1123" y1="31.1928" x2="73.7637" y2="33.5402" gradientUnits="userSpaceOnUse">
<stop stop-color="#3389C0"/>
<stop offset="1" stop-color="#2A2563"/>
</linearGradient>
<linearGradient id="paint10_linear_14298_12822" x1="80.2282" y1="31.1969" x2="82.8846" y2="33.5706" gradientUnits="userSpaceOnUse">
<stop stop-color="#3389C0"/>
<stop offset="1" stop-color="#2A2563"/>
</linearGradient>
<linearGradient id="paint11_linear_14298_12822" x1="85.5031" y1="31.198" x2="88.1501" y2="33.5056" gradientUnits="userSpaceOnUse">
<stop stop-color="#3389C0"/>
<stop offset="1" stop-color="#2A2563"/>
</linearGradient>
<linearGradient id="paint12_linear_14298_12822" x1="51.7024" y1="31.2047" x2="53.8314" y2="32.2954" gradientUnits="userSpaceOnUse">
<stop stop-color="#3389C0"/>
<stop offset="1" stop-color="#2A2563"/>
</linearGradient>
<linearGradient id="paint13_linear_14298_12822" x1="61.1351" y1="31.2153" x2="63.6265" y2="33.0481" gradientUnits="userSpaceOnUse">
<stop stop-color="#3389C0"/>
<stop offset="1" stop-color="#2A2563"/>
</linearGradient>
<linearGradient id="paint14_linear_14298_12822" x1="66.1441" y1="31.2047" x2="68.6626" y2="33.094" gradientUnits="userSpaceOnUse">
<stop stop-color="#3389C0"/>
<stop offset="1" stop-color="#2A2563"/>
</linearGradient>
<linearGradient id="paint15_linear_14298_12822" x1="76.3874" y1="31.2047" x2="78.4227" y2="32.1729" gradientUnits="userSpaceOnUse">
<stop stop-color="#3389C0"/>
<stop offset="1" stop-color="#2A2563"/>
</linearGradient>
<linearGradient id="paint16_linear_14298_12822" x1="90.5906" y1="31.2036" x2="93.1266" y2="33.1512" gradientUnits="userSpaceOnUse">
<stop stop-color="#3389C0"/>
<stop offset="1" stop-color="#2A2563"/>
</linearGradient>
<linearGradient id="paint17_linear_14298_12822" x1="47.1823" y1="31.2259" x2="49.5642" y2="32.7891" gradientUnits="userSpaceOnUse">
<stop stop-color="#3389C0"/>
<stop offset="1" stop-color="#2A2563"/>
</linearGradient>
</defs>
</svg>
