<svg width="18" height="18" viewBox="0 0 18 18" fill="none" xmlns="http://www.w3.org/2000/svg">
<g clip-path="url(#clip0_14362_12793)">
<path d="M17.1202 14.4719H0.87975C0.646426 14.4719 0.422658 14.3755 0.257673 14.2038C0.0926877 14.0322 0 13.7993 0 13.5566V0.915373C0 0.672601 0.0926877 0.439772 0.257673 0.268107C0.422658 0.0964409 0.646426 0 0.87975 0H17.1202C17.3536 0 17.5773 0.0964409 17.7423 0.268107C17.9073 0.439772 18 0.672601 18 0.915373V13.5566C18 13.7993 17.9073 14.0322 17.7423 14.2038C17.5773 14.3755 17.3536 14.4719 17.1202 14.4719Z" stroke="#ADADAE" stroke-miterlimit="10" stroke-linecap="round" stroke-linejoin="round"/>
<path d="M11.9744 18.0007H6.02539L7.38064 14.4727H10.6191L11.9744 18.0007Z" stroke="#ADADAE" stroke-miterlimit="10" stroke-linecap="round" stroke-linejoin="round"/>
<path d="M12.6775 18H5.32227" stroke="#ADADAE" stroke-miterlimit="10" stroke-linecap="round" stroke-linejoin="round"/>
<path d="M0 11.5625H18" stroke="#ADADAE" stroke-miterlimit="10" stroke-linecap="round" stroke-linejoin="round"/>
<path d="M6.6632 5.81836L4.3457 8.2297" stroke="#ADADAE" stroke-miterlimit="10" stroke-linecap="round" stroke-linejoin="round"/>
<path d="M13.6483 3.91602L10.832 6.8463" stroke="#ADADAE" stroke-miterlimit="10" stroke-linecap="round" stroke-linejoin="round"/>
<path d="M9.24031 6.83674L8.25781 5.81445" stroke="#ADADAE" stroke-miterlimit="10" stroke-linecap="round" stroke-linejoin="round"/>
<path d="M14.4453 4.25712C15.0666 4.25712 15.5703 3.73305 15.5703 3.08657C15.5703 2.44009 15.0666 1.91602 14.4453 1.91602C13.824 1.91602 13.3203 2.44009 13.3203 3.08657C13.3203 3.73305 13.824 4.25712 14.4453 4.25712Z" stroke="#ADADAE" stroke-miterlimit="10" stroke-linecap="round" stroke-linejoin="round"/>
<path d="M10.0352 8.83525C10.6565 8.83525 11.1602 8.31117 11.1602 7.66469C11.1602 7.01822 10.6565 6.49414 10.0352 6.49414C9.41384 6.49414 8.91016 7.01822 8.91016 7.66469C8.91016 8.31117 9.41384 8.83525 10.0352 8.83525Z" stroke="#ADADAE" stroke-miterlimit="10" stroke-linecap="round" stroke-linejoin="round"/>
<path d="M7.45898 6.16142C8.08031 6.16142 8.58398 5.63735 8.58398 4.99087C8.58398 4.34439 8.08031 3.82031 7.45898 3.82031C6.83766 3.82031 6.33398 4.34439 6.33398 4.99087C6.33398 5.63735 6.83766 6.16142 7.45898 6.16142Z" stroke="#ADADAE" stroke-miterlimit="10" stroke-linecap="round" stroke-linejoin="round"/>
<path d="M3.55664 10.2317C4.17796 10.2317 4.68164 9.70766 4.68164 9.06118C4.68164 8.4147 4.17796 7.89062 3.55664 7.89062C2.93532 7.89062 2.43164 8.4147 2.43164 9.06118C2.43164 9.70766 2.93532 10.2317 3.55664 10.2317Z" stroke="#ADADAE" stroke-miterlimit="10" stroke-linecap="round" stroke-linejoin="round"/>
</g>
<defs>
<clipPath id="clip0_14362_12793">
<rect width="18" height="18" fill="white"/>
</clipPath>
</defs>
</svg>
