<svg width="12" height="12" viewBox="0 0 12 12" fill="none" xmlns="http://www.w3.org/2000/svg">
<path d="M11.8762 1.04114C11.8762 0.851403 11.8008 0.669447 11.6666 0.535284C11.5325 0.40112 11.3505 0.325735 11.1608 0.325706L5.08921 0.325706C4.90162 0.328967 4.72282 0.405776 4.59131 0.539591C4.4598 0.673406 4.38611 0.85352 4.38611 1.04114C4.38611 1.22876 4.4598 1.40887 4.59131 1.54269C4.72282 1.6765 4.90162 1.75331 5.08921 1.75657L9.43342 1.75657L0.535534 10.6545C0.401344 10.7887 0.325956 10.9707 0.325957 11.1604C0.325957 11.3502 0.401344 11.5322 0.535534 11.6664C0.669724 11.8006 0.851725 11.876 1.0415 11.876C1.23127 11.876 1.41327 11.8006 1.54746 11.6664L10.4454 2.7685L10.4454 7.11271C10.4486 7.3003 10.5254 7.47911 10.6592 7.61062C10.7931 7.74213 10.9732 7.81582 11.1608 7.81582C11.3484 7.81582 11.5285 7.74213 11.6623 7.61062C11.7962 7.47911 11.873 7.3003 11.8762 7.11271L11.8762 1.04114Z" fill="#649AE9"/>
</svg>
