<svg width="28" height="28" viewBox="0 0 28 28" fill="none" xmlns="http://www.w3.org/2000/svg">
<path d="M14.0263 4.95349e-05C16.79 0.000104846 19.4916 0.819677 21.7895 2.35513C24.0874 3.89058 25.8784 6.07296 26.936 8.62628C27.9936 11.1796 28.2703 13.9892 27.7312 16.6998C27.192 19.4104 25.8612 21.9002 23.907 23.8545C22.612 25.1634 21.071 26.2035 19.3727 26.9149C17.6743 27.6263 15.8522 27.9951 14.0109 28C12.1696 28.0048 10.3454 27.6458 8.64337 26.9434C6.94129 26.241 5.3948 25.2092 4.0928 23.9072C2.7908 22.6052 1.75896 21.0587 1.05658 19.3566C0.354209 17.6546 -0.00484858 15.8304 4.94435e-05 13.9891C0.00494746 12.1478 0.373704 10.3257 1.08512 8.62734C1.79654 6.92902 2.8366 5.38804 4.14551 4.09299C5.44008 2.79139 6.97993 1.75946 8.67595 1.05691C10.372 0.354363 12.1905 -0.00485412 14.0263 4.95349e-05ZM14.0263 27.0459C16.6117 27.0459 19.1391 26.2792 21.2888 24.8428C23.4385 23.4065 25.114 21.3649 26.1034 18.9762C27.0928 16.5876 27.3516 13.9592 26.8472 11.4235C26.3429 8.88774 25.0978 6.5585 23.2697 4.73033C21.4415 2.90215 19.1123 1.65715 16.5765 1.15276C14.0408 0.648364 11.4124 0.907236 9.02376 1.89664C6.63513 2.88604 4.59354 4.56153 3.15715 6.71124C1.72077 8.86094 0.954096 11.3883 0.954096 13.9737C0.957914 17.4395 2.33638 20.7623 4.78706 23.2129C7.23774 25.6636 10.5605 27.0421 14.0263 27.0459Z" fill="#081D3A"/>
<path d="M14.0258 19.833C13.9365 19.8332 13.8492 19.8068 13.7749 19.7573C13.7007 19.7078 13.6428 19.6373 13.6086 19.5549C13.5744 19.4724 13.5655 19.3816 13.5829 19.2941C13.6004 19.2065 13.6434 19.1262 13.7066 19.0631L18.7976 13.9731L13.7075 8.88306C13.6254 8.79804 13.58 8.68418 13.581 8.56599C13.5821 8.4478 13.6295 8.33474 13.713 8.25117C13.7966 8.16759 13.9097 8.12018 14.0279 8.11916C14.1461 8.11813 14.2599 8.16357 14.3449 8.24568L19.7541 13.6548C19.8386 13.7394 19.8861 13.854 19.8861 13.9735C19.8861 14.0931 19.8386 14.2077 19.7541 14.2922L14.3449 19.7014C14.303 19.7432 14.2532 19.7764 14.1985 19.799C14.1437 19.8216 14.085 19.8331 14.0258 19.833Z" fill="#081D3A"/>
<path d="M19.4371 14.425H8.61873C8.49918 14.425 8.38453 14.3775 8.29999 14.2929C8.21546 14.2084 8.16797 14.0938 8.16797 13.9742C8.16797 13.8547 8.21546 13.74 8.29999 13.6555C8.38453 13.5709 8.49918 13.5234 8.61873 13.5234H19.4371C19.5566 13.5234 19.6713 13.5709 19.7558 13.6555C19.8403 13.74 19.8878 13.8547 19.8878 13.9742C19.8878 14.0938 19.8403 14.2084 19.7558 14.2929C19.6713 14.3775 19.5566 14.425 19.4371 14.425Z" fill="#081D3A"/>
</svg>
