<svg width="60" height="60" viewBox="0 0 60 60" fill="none" xmlns="http://www.w3.org/2000/svg">
<path d="M30 6.23438C43.125 6.23438 53.7656 16.875 53.7656 30C53.7656 43.125 43.125 53.7656 30 53.7656C16.875 53.7656 6.23438 43.125 6.23438 30C6.23438 16.875 16.875 6.23438 30 6.23438ZM30 51.5156C41.8594 51.5156 51.5156 41.8594 51.5156 30C51.5156 18.1406 41.8594 8.48438 30 8.48438C18.1406 8.48438 8.48438 18.1406 8.48438 30C8.48438 41.8594 18.1406 51.5156 30 51.5156Z" fill="url(#paint0_linear_1226_34865)"/>
<path d="M18.7031 28.875H38.5781L31.4531 21.75C31.0312 21.3281 31.0312 20.5781 31.4531 20.1562C31.875 19.7344 32.625 19.7344 33.0469 20.1562L42.1406 29.2031C42.2344 29.2969 42.3281 29.4375 42.375 29.5781C42.4687 29.8594 42.4687 30.1875 42.375 30.4219C42.3281 30.5625 42.2344 30.7031 42.1406 30.7969L33.0469 39.8438C32.8125 40.0781 32.5312 40.1719 32.25 40.1719C31.9687 40.1719 31.6875 40.0781 31.4531 39.8438C31.0312 39.4219 31.0312 38.6719 31.4531 38.25L38.5781 31.125H18.6562C18.0469 31.125 17.5312 30.6094 17.5312 30C17.5312 29.3906 18.0469 28.875 18.7031 28.875Z" fill="#ACC6EC"/>
<defs>
<linearGradient id="paint0_linear_1226_34865" x1="54" y1="30" x2="20.5" y2="30" gradientUnits="userSpaceOnUse">
<stop stop-color="#ACC6EC"/>
<stop offset="1" stop-color="white"/>
</linearGradient>
</defs>
</svg>
