<svg width="13" height="17" viewBox="0 0 13 17" fill="none" xmlns="http://www.w3.org/2000/svg">
<path d="M6.65665 16.5C6.53222 16.5 6.41289 16.4506 6.32491 16.3626C6.23693 16.2747 6.1875 16.1554 6.1875 16.031V0.968997C6.1875 0.844611 6.23693 0.72532 6.32491 0.637366C6.41289 0.549412 6.53222 0.5 6.65665 0.5C6.78107 0.5 6.9004 0.549412 6.98838 0.637366C7.07637 0.72532 7.12579 0.844611 7.12579 0.968997V16.031C7.12579 16.1554 7.07637 16.2747 6.98838 16.3626C6.9004 16.4506 6.78107 16.5 6.65665 16.5Z" fill="#14B8A6" stroke="#14B8A6"/>
<path d="M11.53 4.98207C11.4309 4.98219 11.3344 4.95076 11.2545 4.89233L6.65682 1.54901L2.05917 4.89233C1.95855 4.96576 1.83288 4.99622 1.70979 4.97702C1.5867 4.95782 1.47629 4.89052 1.40284 4.78993C1.32938 4.68935 1.29891 4.56371 1.31812 4.44066C1.33733 4.31762 1.40465 4.20724 1.50527 4.13381L6.37877 0.589757C6.45897 0.531423 6.5556 0.5 6.65478 0.5C6.75396 0.5 6.8506 0.531423 6.9308 0.589757L11.8062 4.13381C11.8863 4.19207 11.9459 4.27418 11.9765 4.36839C12.007 4.46259 12.007 4.56405 11.9763 4.65822C11.9456 4.75239 11.886 4.83445 11.8058 4.89262C11.7256 4.9508 11.6291 4.98211 11.53 4.98207Z" fill="#14B8A6" stroke="#14B8A6"/>
</svg>
