<svg width="18" height="18" viewBox="0 0 18 18" fill="none" xmlns="http://www.w3.org/2000/svg">
<g clip-path="url(#clip0_14362_23110)">
<path d="M17.5981 17.8449H4.23031C4.00813 17.8449 3.82812 17.6649 3.82812 17.4427V4.07211C3.82812 3.84992 4.00813 3.66992 4.23031 3.66992H17.5981C17.8203 3.66992 18.0003 3.84992 18.0003 4.07211V17.4399C18.0003 17.6649 17.8203 17.8449 17.5981 17.8449ZM4.6325 17.0377H17.1959V4.47711H4.6325V17.0377Z" fill="#ADADAE"/>
<path d="M7.29115 10.2539C7.18428 10.2539 7.08022 10.2117 7.00428 10.1329L5.53615 8.63104C5.38147 8.47073 5.38428 8.2176 5.54178 8.0601C5.70209 7.90542 5.95522 7.90823 6.11272 8.06573L7.27147 9.24979L9.81959 6.20948C9.96303 6.03792 10.2162 6.01542 10.3877 6.15885C10.5593 6.30229 10.5818 6.55542 10.4383 6.72698L7.60053 10.1104C7.5274 10.1976 7.42053 10.251 7.30803 10.2539C7.29959 10.2539 7.29678 10.2539 7.29115 10.2539ZM16.0015 9.21604H10.9446C10.7224 9.21604 10.5424 9.03604 10.5424 8.81385C10.5424 8.59167 10.7224 8.41167 10.9446 8.41167H16.0015C16.2237 8.41167 16.4037 8.59167 16.4037 8.81385C16.4037 9.03604 16.2237 9.21604 16.0015 9.21604ZM7.29115 15.4457C7.18428 15.4457 7.08022 15.4035 7.00428 15.3248L5.53615 13.8229C5.38147 13.6626 5.38428 13.4095 5.54178 13.252C5.70209 13.0973 5.95522 13.1001 6.11272 13.2576L7.27147 14.4417L9.81959 11.4014C9.96303 11.2326 10.2162 11.2073 10.3877 11.3507C10.5593 11.4942 10.5818 11.7473 10.4383 11.9189L7.60053 15.3023C7.5274 15.3895 7.42053 15.4429 7.30803 15.4457C7.29959 15.4457 7.29678 15.4457 7.29115 15.4457ZM16.0015 14.4079H10.9446C10.7224 14.4079 10.5424 14.2279 10.5424 14.0057C10.5424 13.7835 10.7224 13.6035 10.9446 13.6035H16.0015C16.2237 13.6035 16.4037 13.7835 16.4037 14.0057C16.4037 14.2279 16.2237 14.4079 16.0015 14.4079Z" fill="#ADADAE"/>
<path d="M2.86313 8.56477H0.402187C0.18 8.56477 0 8.38477 0 8.16258V0.560391C0 0.338203 0.18 0.158203 0.402187 0.158203H8.32781C8.55 0.158203 8.73 0.338203 8.73 0.560391V2.7457C8.73 2.96789 8.55 3.14789 8.32781 3.14789C8.10563 3.14789 7.92562 2.96789 7.92562 2.7457V0.962578H0.807187V7.76039H2.86313C3.08531 7.76039 3.26531 7.94039 3.26531 8.16258C3.26531 8.38477 3.08531 8.56477 2.86313 8.56477Z" fill="#ADADAE"/>
</g>
<defs>
<clipPath id="clip0_14362_23110">
<rect width="18" height="18" fill="white"/>
</clipPath>
</defs>
</svg>
