<svg width="37" height="41" viewBox="0 0 37 41" fill="none" xmlns="http://www.w3.org/2000/svg">
<path d="M33.802 4.07983H29.1927V2.5383C29.1983 2.33298 29.1628 2.12861 29.0882 1.93726C29.0135 1.74591 28.9013 1.57147 28.758 1.42424C28.6148 1.27701 28.4436 1.15998 28.2544 1.08007C28.0651 1.00016 27.8618 0.958984 27.6564 0.958984C27.451 0.958984 27.2477 1.00016 27.0585 1.08007C26.8693 1.15998 26.698 1.27701 26.5548 1.42424C26.4116 1.57147 26.2993 1.74591 26.2247 1.93726C26.15 2.12861 26.1145 2.33298 26.1202 2.5383V4.07513H10.7554V2.5383C10.7444 2.13822 10.5777 1.75824 10.2908 1.47917C10.0039 1.2001 9.61944 1.04396 9.2192 1.04396C8.81897 1.04396 8.43452 1.2001 8.14763 1.47917C7.86073 1.75824 7.69403 2.13822 7.68296 2.5383V4.07513H3.07248C2.2579 4.07606 1.47694 4.40007 0.900938 4.97607C0.324939 5.55207 0.000932911 6.33302 0 7.14761V37.883C-5.35224e-07 38.6982 0.323596 39.48 0.899697 40.0568C1.4758 40.6336 2.25729 40.958 3.07248 40.959H33.802C34.6166 40.958 35.3975 40.634 35.9735 40.058C36.5495 39.482 36.8735 38.7011 36.8745 37.8865V7.15348C36.8738 6.33869 36.55 5.55744 35.9739 4.98118C35.3979 4.40493 34.6168 4.08076 33.802 4.07983ZM22.1618 28.447L18.637 31.9718C18.3488 32.2598 17.9581 32.4215 17.5507 32.4215C17.1434 32.4215 16.7527 32.2598 16.4645 31.9718C15.8641 31.3714 15.6808 31.1188 15.4141 31.0319L11.8141 27.507C11.5261 27.2189 11.3644 26.8282 11.3644 26.4208C11.3644 26.0134 11.5261 25.6227 11.8141 25.3346C12.1173 25.0456 12.5202 24.8844 12.9391 24.8844C13.358 24.8844 13.7608 25.0456 14.0641 25.3346L17.5889 28.8594L25.6855 20.5843C25.8224 20.4212 25.9917 20.2884 26.1827 20.1943C26.3736 20.1001 26.5821 20.0467 26.7948 20.0373C27.0075 20.028 27.2198 20.0629 27.4183 20.14C27.6168 20.217 27.7971 20.3344 27.9478 20.4848C28.0985 20.6352 28.2163 20.8152 28.2938 21.0136C28.3712 21.2119 28.4066 21.4241 28.3978 21.6369C28.3889 21.8496 28.3359 22.0581 28.2421 22.2493C28.1484 22.4405 28.016 22.6101 27.8532 22.7473L24.3284 26.2722C22.9114 27.6986 24.0934 26.5295 22.1618 28.447ZM33.802 13.2984H3.07248V7.15348H7.68179V8.69031C7.69285 9.09039 7.85956 9.47037 8.14645 9.74944C8.43335 10.0285 8.81779 10.1846 9.21803 10.1846C9.61826 10.1846 10.0027 10.0285 10.2896 9.74944C10.5765 9.47037 10.7432 9.09039 10.7543 8.69031V7.15348H26.1202V8.69031C26.1313 9.09039 26.298 9.47037 26.5849 9.74944C26.8717 10.0285 27.2562 10.1846 27.6564 10.1846C28.0567 10.1846 28.4411 10.0285 28.728 9.74944C29.0149 9.47037 29.1816 9.09039 29.1927 8.69031V7.15348H33.802V13.2984Z" fill="#649AE9"/>
</svg>
