<svg width="12" height="13" viewBox="0 0 12 13" fill="none" xmlns="http://www.w3.org/2000/svg">
<path d="M0.923077 12H11.0769V4.61539H0.923077V12ZM3.69231 3.23077V1.15385C3.69231 1.08654 3.67067 1.03125 3.6274 0.987981C3.58413 0.944712 3.52885 0.923077 3.46154 0.923077H3C2.93269 0.923077 2.8774 0.944712 2.83413 0.987981C2.79087 1.03125 2.76923 1.08654 2.76923 1.15385V3.23077C2.76923 3.29808 2.79087 3.35337 2.83413 3.39663C2.8774 3.4399 2.93269 3.46154 3 3.46154H3.46154C3.52885 3.46154 3.58413 3.4399 3.6274 3.39663C3.67067 3.35337 3.69231 3.29808 3.69231 3.23077ZM9.23077 3.23077V1.15385C9.23077 1.08654 9.20914 1.03125 9.16587 0.987981C9.1226 0.944712 9.06731 0.923077 9 0.923077H8.53846C8.47115 0.923077 8.41587 0.944712 8.3726 0.987981C8.32933 1.03125 8.30769 1.08654 8.30769 1.15385V3.23077C8.30769 3.29808 8.32933 3.35337 8.3726 3.39663C8.41587 3.4399 8.47115 3.46154 8.53846 3.46154H9C9.06731 3.46154 9.1226 3.4399 9.16587 3.39663C9.20914 3.35337 9.23077 3.29808 9.23077 3.23077ZM12 2.76923V12C12 12.25 11.9087 12.4663 11.726 12.649C11.5433 12.8317 11.3269 12.9231 11.0769 12.9231H0.923077C0.673077 12.9231 0.456731 12.8317 0.274038 12.649C0.0913462 12.4663 0 12.25 0 12V2.76923C0 2.51923 0.0913462 2.30288 0.274038 2.12019C0.456731 1.9375 0.673077 1.84615 0.923077 1.84615H1.84615V1.15385C1.84615 0.836538 1.95913 0.564904 2.1851 0.338942C2.41106 0.112981 2.68269 0 3 0H3.46154C3.77885 0 4.05048 0.112981 4.27644 0.338942C4.5024 0.564904 4.61538 0.836538 4.61538 1.15385V1.84615H7.38462V1.15385C7.38462 0.836538 7.4976 0.564904 7.72356 0.338942C7.94952 0.112981 8.22115 0 8.53846 0H9C9.31731 0 9.58894 0.112981 9.8149 0.338942C10.0409 0.564904 10.1538 0.836538 10.1538 1.15385V1.84615H11.0769C11.3269 1.84615 11.5433 1.9375 11.726 2.12019C11.9087 2.30288 12 2.51923 12 2.76923Z" fill="#081D3A"/>
</svg>
