<svg width="18" height="18" viewBox="0 0 18 18" fill="none" xmlns="http://www.w3.org/2000/svg">
<path d="M9.32766 17.3498H1.51172C1.39983 17.3498 1.29253 17.3054 1.21341 17.2263C1.13429 17.1472 1.08984 17.0399 1.08984 16.928V15.187C1.08984 15.0751 1.13429 14.9678 1.21341 14.8887C1.29253 14.8096 1.39983 14.7652 1.51172 14.7652H6.18891C6.30079 14.7652 6.4081 14.8096 6.48722 14.8887C6.56633 14.9678 6.61078 15.0751 6.61078 15.187C6.61078 15.2989 6.56633 15.4062 6.48722 15.4853C6.4081 15.5645 6.30079 15.6089 6.18891 15.6089H1.93359V16.5173H8.90578V15.5977H8.30391C8.19202 15.5977 8.08471 15.5532 8.0056 15.4741C7.92648 15.395 7.88203 15.2877 7.88203 15.1758C7.88203 15.0639 7.92648 14.9566 8.0056 14.8775C8.08471 14.7984 8.19202 14.7539 8.30391 14.7539H9.32766C9.43954 14.7539 9.54685 14.7984 9.62597 14.8775C9.70508 14.9566 9.74953 15.0639 9.74953 15.1758V16.928C9.74953 17.0399 9.70508 17.1472 9.62597 17.2263C9.54685 17.3054 9.43954 17.3498 9.32766 17.3498Z" fill="#ADADAE"/>
<path d="M8.30359 15.5975C8.19266 15.599 8.08559 15.5568 8.00557 15.4799C7.92556 15.403 7.87904 15.2978 7.87609 15.1869V13.8453H2.95703V15.1869C2.95703 15.2987 2.91258 15.406 2.83347 15.4852C2.75435 15.5643 2.64704 15.6087 2.53516 15.6087C2.42327 15.6087 2.31596 15.5643 2.23685 15.4852C2.15773 15.406 2.11328 15.2987 2.11328 15.1869V13.4234C2.11328 13.312 2.15734 13.2051 2.23585 13.1261C2.31436 13.0471 2.42094 13.0023 2.53234 13.0015H8.30359C8.41548 13.0015 8.52279 13.046 8.6019 13.1251C8.68102 13.2042 8.72547 13.3115 8.72547 13.4234V15.1869C8.72254 15.2968 8.6768 15.4012 8.598 15.4779C8.5192 15.5546 8.41356 15.5975 8.30359 15.5975ZM6.40797 10.4478C6.32458 10.4477 6.24309 10.4229 6.17378 10.3766C6.10447 10.3302 6.05046 10.2643 6.01856 10.1873C5.98666 10.1103 5.9783 10.0255 5.99455 9.94371C6.0108 9.86193 6.05092 9.78679 6.10984 9.72779L10.6689 5.16591C10.7081 5.12658 10.7546 5.09534 10.8058 5.07398C10.857 5.05262 10.9119 5.04156 10.9674 5.04143C11.0229 5.0413 11.0779 5.0521 11.1292 5.07322C11.1806 5.09434 11.2272 5.12536 11.2666 5.16451C11.3059 5.20366 11.3371 5.25017 11.3585 5.3014C11.3799 5.35262 11.3909 5.40755 11.391 5.46304C11.3912 5.51854 11.3804 5.57352 11.3593 5.62485C11.3381 5.67617 11.3071 5.72283 11.268 5.76216L6.70609 10.324C6.62654 10.4024 6.51964 10.4468 6.40797 10.4478ZM3.51109 7.55091C3.4556 7.55166 3.40053 7.54107 3.34927 7.51979C3.298 7.49851 3.25162 7.46699 3.21297 7.42716C3.17351 7.38819 3.14219 7.34176 3.1208 7.29059C3.09942 7.23941 3.08841 7.1845 3.08841 7.12904C3.08841 7.07358 3.09942 7.01867 3.1208 6.96749C3.14219 6.91631 3.17351 6.86989 3.21297 6.83091L7.77484 2.26904C7.81347 2.22759 7.86004 2.19435 7.91179 2.17129C7.96354 2.14823 8.0194 2.13583 8.07605 2.13483C8.1327 2.13383 8.18896 2.14425 8.24149 2.16547C8.29402 2.18669 8.34174 2.21827 8.3818 2.25833C8.42186 2.29839 8.45344 2.34611 8.47466 2.39864C8.49588 2.45117 8.5063 2.50744 8.5053 2.56408C8.5043 2.62073 8.4919 2.67659 8.46885 2.72834C8.44579 2.78009 8.41254 2.82667 8.37109 2.86529L3.80922 7.42716C3.77036 7.46673 3.72395 7.49808 3.67273 7.51934C3.62152 7.5406 3.56655 7.55133 3.51109 7.55091Z" fill="#ADADAE"/>
<path d="M11.305 6.22417C11.2495 6.22491 11.1945 6.21432 11.1432 6.19305C11.0919 6.17177 11.0456 6.14025 11.0069 6.10042L10.6666 5.76292C10.5875 5.68348 10.5432 5.57588 10.5435 5.4638C10.5438 5.35172 10.5886 5.24433 10.668 5.16526C10.7474 5.08619 10.855 5.04192 10.9671 5.04219C11.0792 5.04245 11.1866 5.08723 11.2656 5.16667L11.305 5.20604L11.8675 4.64354L8.8919 1.66792L8.3294 2.23042L10.045 3.94604C10.1233 4.0255 10.1673 4.1326 10.1673 4.24417C10.1673 4.35574 10.1233 4.46283 10.045 4.54229C10.006 4.58175 9.95962 4.61308 9.90845 4.63446C9.85727 4.65584 9.80236 4.66685 9.7469 4.66685C9.69144 4.66685 9.63652 4.65584 9.58535 4.63446C9.53417 4.61308 9.48775 4.58175 9.44877 4.54229L7.43502 2.53136C7.39557 2.49238 7.36424 2.44596 7.34286 2.39478C7.32148 2.3436 7.31047 2.28869 7.31047 2.23323C7.31047 2.17777 7.32148 2.12286 7.34286 2.07168C7.36424 2.02051 7.39557 1.97408 7.43502 1.93511L8.59096 0.776356C8.67222 0.700434 8.77928 0.658203 8.89049 0.658203C9.0017 0.658203 9.10876 0.700434 9.19002 0.776356L12.7619 4.34823C12.8405 4.42762 12.8849 4.53463 12.8856 4.64636C12.8855 4.75821 12.841 4.86544 12.7619 4.94448L11.6031 6.10323C11.564 6.14216 11.5174 6.1729 11.4662 6.19367C11.4151 6.21443 11.3603 6.2248 11.305 6.22417ZM5.5844 11.9448C5.52839 11.9438 5.47316 11.9316 5.42195 11.9089C5.37074 11.8862 5.32461 11.8534 5.28627 11.8126L1.7144 8.24917C1.67494 8.21019 1.64362 8.16377 1.62223 8.11259C1.60085 8.06142 1.58984 8.00651 1.58984 7.95104C1.58984 7.89558 1.60085 7.84067 1.62223 7.78949C1.64362 7.73832 1.67494 7.6919 1.7144 7.65292L2.87315 6.49417C2.91213 6.45471 2.95855 6.42339 3.00972 6.402C3.0609 6.38062 3.11581 6.36961 3.17127 6.36961C3.22674 6.36961 3.28165 6.38062 3.33282 6.402C3.384 6.42339 3.43042 6.45471 3.4694 6.49417L3.8069 6.83167C3.84835 6.87029 3.88159 6.91687 3.90465 6.96862C3.92771 7.02037 3.94011 7.07623 3.94111 7.13287C3.94211 7.18952 3.93169 7.24579 3.91047 7.29832C3.88925 7.35085 3.85767 7.39857 3.81761 7.43863C3.77755 7.47869 3.72983 7.51027 3.6773 7.53149C3.62477 7.55271 3.5685 7.56313 3.51185 7.56213C3.45521 7.56113 3.39935 7.54873 3.3476 7.52567C3.29585 7.50261 3.24927 7.46937 3.21065 7.42792L3.17127 7.38854L2.60877 7.95104L5.5844 10.9267L6.1469 10.3642L4.63096 8.85104C4.55264 8.77158 4.50873 8.66449 4.50873 8.55292C4.50873 8.44135 4.55264 8.33425 4.63096 8.25479C4.66994 8.21534 4.71636 8.18401 4.76754 8.16263C4.81871 8.14125 4.87362 8.13024 4.92909 8.13024C4.98455 8.13024 5.03946 8.14125 5.09064 8.16263C5.14181 8.18401 5.18823 8.21534 5.22721 8.25479L7.03002 10.066C7.10903 10.1451 7.1534 10.2524 7.1534 10.3642C7.1534 10.476 7.10903 10.5832 7.03002 10.6623L5.88252 11.8126C5.84399 11.8532 5.79782 11.8858 5.74665 11.9085C5.69549 11.9311 5.64035 11.9435 5.5844 11.9448ZM15.7206 15.9442C15.5639 15.9449 15.4086 15.9145 15.2637 15.8546C15.1189 15.7947 14.9874 15.7066 14.8769 15.5954L7.84565 8.58667C7.80557 8.54805 7.77371 8.50174 7.75196 8.45051C7.73021 8.39929 7.71903 8.3442 7.71909 8.28854C7.71918 8.17669 7.7637 8.06946 7.84284 7.99042L8.93127 6.90479C8.97025 6.86534 9.01667 6.83401 9.06785 6.81263C9.11902 6.79125 9.17394 6.78024 9.2294 6.78024C9.28486 6.78024 9.33977 6.79125 9.39095 6.81263C9.44212 6.83401 9.48855 6.86534 9.52752 6.90479L16.5588 13.9107C16.6697 14.0215 16.7576 14.153 16.8177 14.2978C16.8777 14.4426 16.9086 14.5978 16.9086 14.7545C16.9086 14.9112 16.8777 15.0664 16.8177 15.2112C16.7576 15.356 16.6697 15.4875 16.5588 15.5982C16.4487 15.7083 16.3181 15.7955 16.1742 15.8548C16.0304 15.9142 15.8763 15.9445 15.7206 15.9442ZM8.74002 8.28854L15.4675 14.9992C15.5338 15.0615 15.6213 15.0961 15.7122 15.0961C15.8031 15.0961 15.8907 15.0615 15.9569 14.9992C16.0215 14.9341 16.0579 14.8462 16.0581 14.7545C16.0582 14.709 16.0492 14.664 16.0319 14.6221C16.0145 14.5801 15.989 14.5419 15.9569 14.5098L9.2069 7.79917L8.74002 8.28854Z" fill="#ADADAE"/>
</svg>
