<svg width="36" height="40" viewBox="0 0 36 40" fill="none" xmlns="http://www.w3.org/2000/svg">
<path d="M25.3539 19.4375C23.9789 17.875 21.1664 15.1875 17.9789 15.1875C14.7914 15.1875 11.9789 17.875 10.6039 19.4375C10.3539 19.75 10.3539 20.25 10.6039 20.5625C11.9789 22.125 14.7914 24.8125 17.9789 24.8125C21.1664 24.8125 23.9164 22.125 25.3539 20.5625C25.6039 20.25 25.6039 19.75 25.3539 19.4375ZM17.9789 24.1875C15.6664 24.1875 13.7914 22.3125 13.7914 20C13.7914 17.6875 15.6664 15.8125 17.9789 15.8125C20.2914 15.8125 22.1664 17.6875 22.1664 20C22.1664 22.3125 20.2914 24.1875 17.9789 24.1875ZM17.9789 17.125C16.4164 17.125 15.1039 18.4375 15.1039 20C15.1039 21.5625 16.4164 22.875 17.9789 22.875C19.5414 22.875 20.8539 21.5625 20.8539 20C20.8539 18.4375 19.5414 17.125 17.9789 17.125ZM25.3539 19.4375C23.9789 17.875 21.1664 15.1875 17.9789 15.1875C14.7914 15.1875 11.9789 17.875 10.6039 19.4375C10.3539 19.75 10.3539 20.25 10.6039 20.5625C11.9789 22.125 14.7914 24.8125 17.9789 24.8125C21.1664 24.8125 23.9164 22.125 25.3539 20.5625C25.6039 20.25 25.6039 19.75 25.3539 19.4375ZM17.9789 24.1875C15.6664 24.1875 13.7914 22.3125 13.7914 20C13.7914 17.6875 15.6664 15.8125 17.9789 15.8125C20.2914 15.8125 22.1664 17.6875 22.1664 20C22.1664 22.3125 20.2914 24.1875 17.9789 24.1875ZM17.9789 17.125C16.4164 17.125 15.1039 18.4375 15.1039 20C15.1039 21.5625 16.4164 22.875 17.9789 22.875C19.5414 22.875 20.8539 21.5625 20.8539 20C20.8539 18.4375 19.5414 17.125 17.9789 17.125ZM27.7914 20.5625C27.6664 20.5 27.6039 20.4375 27.6039 20.375V20.3125C27.6039 20.3125 27.6039 20.25 27.5414 20.25C27.5414 20.1875 27.4789 20.125 27.4789 20.0625C27.4789 19.9375 27.4789 19.875 27.5414 19.8125C27.6039 19.75 27.6664 19.625 27.7289 19.5625C33.6039 15.0625 35.9789 11.4375 35.2289 10.125C34.5414 8.9375 30.6039 8.9375 23.7289 11.75C23.7914 12.5 23.9164 13.375 23.9789 14.3125L23.2914 14.375H22.6039C22.5414 13.625 22.4789 12.9375 22.4164 12.3125C21.6039 12.6875 20.7914 13.0625 19.9164 13.4375C19.6039 13.625 19.1664 13.4375 19.0414 13.125C18.8539 12.8125 19.0414 12.375 19.3539 12.25C20.3539 11.75 21.2914 11.3125 22.2914 10.9375C21.2914 3.375 19.3539 0 17.9789 0C16.5414 0 14.6664 3.375 13.6039 10.75C14.5414 11.125 15.5414 11.5625 16.5414 12.0625C16.8539 12.25 17.0414 12.625 16.8539 12.9375C16.6664 13.25 16.2914 13.375 15.9789 13.25C15.1039 12.8125 14.2914 12.4375 13.4789 12.125C13.4164 12.75 13.3539 13.5 13.2914 14.25C13.2914 14.625 12.9789 14.875 12.6039 14.875H12.5414C12.1664 14.8125 11.9164 14.5 11.9164 14.125C11.9789 13.1875 12.1039 12.3125 12.1664 11.5625C5.29142 8.75 1.35392 8.75 0.666422 9.9375C-0.0210783 11.1875 1.97892 14.6875 8.16642 19.375L8.22892 19.4375C8.22892 19.4375 8.22892 19.4375 8.29142 19.5L8.35392 19.5625C8.35392 19.5625 8.35392 19.625 8.41642 19.625L8.47892 19.6875C8.47892 19.6875 8.47892 19.6875 8.47892 19.75C8.47892 19.75 8.47892 19.75 8.47892 19.8125C8.47892 19.8125 8.47892 19.8125 8.47892 19.875C8.47892 19.9375 8.47892 19.9375 8.47892 20V20.0625V20.125C8.47892 20.1875 8.47892 20.1875 8.47892 20.1875C8.47892 20.1875 8.47892 20.1875 8.47892 20.25C8.47892 20.25 8.47892 20.25 8.47892 20.3125C8.47892 20.3125 8.47892 20.3125 8.47892 20.375C8.47892 20.375 8.47892 20.4375 8.41642 20.4375C8.41642 20.4375 8.41642 20.5 8.35392 20.5C8.35392 20.5 8.35392 20.5 8.35392 20.5625C8.29142 20.625 8.29142 20.625 8.22892 20.6875C1.97892 25.25 -0.0835783 28.75 0.666422 30C1.35392 31.1875 5.29142 31.1875 12.1664 28.375C12.1039 27.625 11.9789 26.75 11.9164 25.8125C11.8539 25.4375 12.1664 25.125 12.5414 25.0625C12.9164 25.0625 13.2289 25.3125 13.2914 25.6875C13.3539 26.4375 13.4164 27.1875 13.4789 27.8125C14.2914 27.4375 15.1039 27.0625 15.9789 26.6875C16.2914 26.5 16.7289 26.6875 16.8539 27C17.0414 27.3125 16.8539 27.75 16.5414 27.875C15.5414 28.375 14.6039 28.8125 13.6039 29.1875C14.6664 36.625 16.6039 40 17.9789 40C19.3539 40 21.2914 36.625 22.3539 29.25C21.4164 28.875 20.4164 28.4375 19.4164 27.9375C19.1039 27.75 18.9164 27.375 19.1039 27.0625C19.2914 26.75 19.6664 26.625 19.9789 26.75C20.8539 27.1875 21.6664 27.5625 22.4789 27.875C22.5414 27.25 22.6039 26.5 22.6664 25.75C22.6664 25.375 23.0414 25.125 23.4164 25.125C23.7914 25.1875 24.0414 25.5 24.0414 25.875C23.9789 26.8125 23.8539 27.6875 23.7914 28.4375C30.7289 31.25 34.6039 31.25 35.2914 30.0625C36.0414 28.75 33.7289 25.0625 27.7914 20.5625ZM26.3539 21.4375C24.8539 23.1875 21.7289 26.1875 17.9789 26.1875C14.2914 26.1875 11.1664 23.25 9.60392 21.4375C8.91642 20.625 8.91642 19.375 9.60392 18.5625C11.1039 16.8125 14.2289 13.8125 17.9789 13.8125C21.6664 13.8125 24.7914 16.75 26.3539 18.5625C27.0414 19.375 27.0414 20.625 26.3539 21.4375ZM17.9789 15.1875C14.7914 15.1875 11.9789 17.875 10.6039 19.4375C10.3539 19.75 10.3539 20.25 10.6039 20.5625C11.9789 22.125 14.7914 24.8125 17.9789 24.8125C21.1664 24.8125 23.9164 22.125 25.3539 20.5625C25.6039 20.25 25.6039 19.75 25.3539 19.4375C23.9789 17.875 21.1664 15.1875 17.9789 15.1875ZM17.9789 24.1875C15.6664 24.1875 13.7914 22.3125 13.7914 20C13.7914 17.6875 15.6664 15.8125 17.9789 15.8125C20.2914 15.8125 22.1664 17.6875 22.1664 20C22.1664 22.3125 20.2914 24.1875 17.9789 24.1875ZM17.9789 17.125C16.4164 17.125 15.1039 18.4375 15.1039 20C15.1039 21.5625 16.4164 22.875 17.9789 22.875C19.5414 22.875 20.8539 21.5625 20.8539 20C20.8539 18.4375 19.5414 17.125 17.9789 17.125Z" fill="#649AE9"/>
</svg>
