<svg width="36" height="36" viewBox="0 0 36 36" fill="none" xmlns="http://www.w3.org/2000/svg">
<circle cx="18" cy="18" r="17.5" fill="#EAF2FC" stroke="#ACC6EC"/>
<path d="M21.7253 9C24.4711 9 26 10.602 26 13.347V22.644C26 25.434 24.4711 27 21.7253 27H14.2756C11.5733 27 10 25.434 10 22.644V13.347C10 10.602 11.5733 9 14.2756 9H21.7253ZM14.5156 21.366C14.2489 21.339 13.9911 21.465 13.8489 21.699C13.7067 21.924 13.7067 22.221 13.8489 22.455C13.9911 22.68 14.2489 22.815 14.5156 22.779H21.4844C21.8391 22.743 22.1067 22.4361 22.1067 22.077C22.1067 21.708 21.8391 21.402 21.4844 21.366H14.5156ZM21.4844 17.2611H14.5156C14.1324 17.2611 13.8222 17.577 13.8222 17.964C13.8222 18.351 14.1324 18.666 14.5156 18.666H21.4844C21.8667 18.666 22.1778 18.351 22.1778 17.964C22.1778 17.577 21.8667 17.2611 21.4844 17.2611ZM17.1724 13.185H14.5156V13.194C14.1324 13.194 13.8222 13.509 13.8222 13.896C13.8222 14.283 14.1324 14.598 14.5156 14.598H17.1724C17.5556 14.598 17.8667 14.283 17.8667 13.8861C17.8667 13.5 17.5556 13.185 17.1724 13.185Z" fill="#649AE9"/>
</svg>
