<svg width="107" height="66" viewBox="0 0 107 66" fill="none" xmlns="http://www.w3.org/2000/svg">
<rect x="1" y="0.5" width="105" height="65" rx="5" fill="#F4F5F6" stroke="#C6C6C6" stroke-opacity="0.1"/>
<path d="M25 22.5C25 19.7386 27.2386 17.5 30 17.5H106V59.5C106 62.2614 103.761 64.5 101 64.5H25V22.5Z" fill="white"/>
<path d="M38 28.5C38 27.3954 38.8954 26.5 40 26.5H102V30.5H40C38.8954 30.5 38 29.6046 38 28.5Z" fill="#D9D9D9"/>
<path d="M38 34.5C38 33.3954 38.8954 32.5 40 32.5H102V36.5H40C38.8954 36.5 38 35.6046 38 34.5Z" fill="#ECECEC"/>
<path d="M38 40.5C38 39.3954 38.8954 38.5 40 38.5H102V42.5H40C38.8954 42.5 38 41.6046 38 40.5Z" fill="#ECECEC"/>
<path d="M38 46.5C38 45.3954 38.8954 44.5 40 44.5H102V48.5H40C38.8954 48.5 38 47.6046 38 46.5Z" fill="#ECECEC"/>
<path d="M38 52.5C38 51.3954 38.8954 50.5 40 50.5H102V54.5H40C38.8954 54.5 38 53.6046 38 52.5Z" fill="#ECECEC"/>
<path d="M38 58.5C38 57.3954 38.8954 56.5 40 56.5H102V60.5H40C38.8954 60.5 38 59.6046 38 58.5Z" fill="#ECECEC"/>
</svg>
