<svg width="18" height="18" viewBox="0 0 18 18" fill="none" xmlns="http://www.w3.org/2000/svg">
<path d="M5.34375 9.5625C4.84312 9.5625 4.35373 9.41405 3.93746 9.13591C3.5212 8.85777 3.19677 8.46244 3.00518 7.99992C2.8136 7.53739 2.76347 7.02844 2.86114 6.53743C2.95881 6.04641 3.19989 5.59539 3.55389 5.24139C3.90789 4.88739 4.35891 4.64631 4.84993 4.54864C5.34094 4.45097 5.84989 4.5011 6.31242 4.69268C6.77494 4.88427 7.17027 5.2087 7.44841 5.62496C7.72655 6.04123 7.875 6.53062 7.875 7.03125C7.87352 7.70212 7.60635 8.34509 7.13197 8.81947C6.65759 9.29385 6.01462 9.56102 5.34375 9.5625ZM5.34375 5.625C5.06562 5.625 4.79374 5.70748 4.56248 5.862C4.33122 6.01652 4.15098 6.23614 4.04455 6.4931C3.93811 6.75006 3.91026 7.03281 3.96452 7.3056C4.01878 7.57838 4.15271 7.82895 4.34938 8.02562C4.54605 8.22229 4.79662 8.35622 5.06941 8.41048C5.34219 8.46474 5.62494 8.43689 5.8819 8.33046C6.13886 8.22402 6.35848 8.04378 6.51301 7.81252C6.66753 7.58127 6.75 7.30938 6.75 7.03125C6.75 6.84658 6.71363 6.66372 6.64296 6.4931C6.57229 6.32249 6.4687 6.16746 6.33812 6.03688C6.20754 5.9063 6.05251 5.80272 5.8819 5.73205C5.71129 5.66138 5.52842 5.625 5.34375 5.625ZM11.5313 7.875C10.9194 7.875 10.3212 7.69356 9.81246 7.35361C9.30369 7.01367 8.90716 6.53049 8.673 5.96518C8.43884 5.39987 8.37757 4.77782 8.49695 4.17769C8.61632 3.57756 8.91097 3.02631 9.34364 2.59364C9.77631 2.16097 10.3276 1.86632 10.9277 1.74695C11.5278 1.62757 12.1499 1.68884 12.7152 1.923C13.2805 2.15716 13.7637 2.55369 14.1036 3.06246C14.4436 3.57122 14.625 4.16937 14.625 4.78125C14.6235 5.60131 14.2971 6.38735 13.7172 6.96722C13.1374 7.54709 12.3513 7.87351 11.5313 7.875ZM11.5313 2.8125C11.1419 2.8125 10.7612 2.92797 10.4375 3.1443C10.1137 3.36062 9.86137 3.6681 9.71236 4.02784C9.56335 4.38759 9.52437 4.78344 9.60033 5.16534C9.67629 5.54724 9.8638 5.89803 10.1391 6.17337C10.4145 6.4487 10.7653 6.63621 11.1472 6.71217C11.5291 6.78814 11.9249 6.74915 12.2847 6.60014C12.6444 6.45113 12.9519 6.19879 13.1682 5.87503C13.3845 5.55127 13.5 5.17063 13.5 4.78125C13.5 4.25911 13.2926 3.75835 12.9234 3.38914C12.5542 3.01992 12.0534 2.8125 11.5313 2.8125ZM16.3125 16.875H6.75C6.60082 16.875 6.45774 16.8157 6.35225 16.7102C6.24676 16.6048 6.1875 16.4617 6.1875 16.3125C6.1875 16.1633 6.24676 16.0202 6.35225 15.9148C6.45774 15.8093 6.60082 15.75 6.75 15.75H15.75V12.6113C15.7485 11.7912 15.4221 11.0052 14.8422 10.4253C14.2624 9.84541 13.4763 9.51899 12.6563 9.5175H10.4063C9.81069 9.52001 9.2285 9.69438 8.72961 10.0197C8.23071 10.3449 7.83631 10.8073 7.59375 11.3513C7.56658 11.4231 7.525 11.4886 7.47156 11.5437C7.41811 11.5989 7.35395 11.6425 7.28301 11.6719C7.21207 11.7013 7.13587 11.7158 7.05909 11.7147C6.98231 11.7135 6.90658 11.6966 6.83657 11.6651C6.76656 11.6335 6.70375 11.588 6.652 11.5313C6.60026 11.4745 6.56068 11.4078 6.53571 11.3352C6.51074 11.2626 6.5009 11.1856 6.50679 11.109C6.51269 11.0325 6.5342 10.9579 6.57 10.89C6.90091 10.1461 7.44055 9.51414 8.12348 9.07084C8.80641 8.62753 9.6033 8.39189 10.4175 8.3925H12.6675C13.7864 8.3925 14.8594 8.83698 15.6506 9.62814C16.4418 10.4193 16.8863 11.4924 16.8863 12.6113V16.3125C16.8863 16.3873 16.8714 16.4614 16.8424 16.5304C16.8134 16.5994 16.771 16.6619 16.7175 16.7143C16.6641 16.7667 16.6008 16.8079 16.5312 16.8355C16.4617 16.8631 16.3873 16.8765 16.3125 16.875Z" fill="#649AE9"/>
<path d="M9 16.875H1.6875C1.53832 16.875 1.39524 16.8157 1.28975 16.7102C1.18426 16.6048 1.125 16.4617 1.125 16.3125V14.3438C1.125 13.2249 1.56947 12.1518 2.36064 11.3606C3.15181 10.5695 4.22487 10.125 5.34375 10.125C6.46263 10.125 7.53569 10.5695 8.32686 11.3606C9.11803 12.1518 9.5625 13.2249 9.5625 14.3438V16.3125C9.5625 16.4617 9.50324 16.6048 9.39775 16.7102C9.29226 16.8157 9.14918 16.875 9 16.875ZM2.25 15.75H8.4375V14.3438C8.4375 13.5232 8.11155 12.7363 7.53136 12.1561C6.95117 11.5759 6.16426 11.25 5.34375 11.25C4.52324 11.25 3.73633 11.5759 3.15614 12.1561C2.57595 12.7363 2.25 13.5232 2.25 14.3438V15.75Z" fill="#649AE9"/>
<path d="M3.9375 15.1879C3.78832 15.1879 3.64524 15.1286 3.53975 15.0231C3.43426 14.9176 3.375 14.7746 3.375 14.6254V13.5004C3.375 13.3512 3.43426 13.2081 3.53975 13.1026C3.64524 12.9972 3.78832 12.9379 3.9375 12.9379C4.08668 12.9379 4.22976 12.9972 4.33525 13.1026C4.44074 13.2081 4.5 13.3512 4.5 13.5004V14.6254C4.5 14.7746 4.44074 14.9176 4.33525 15.0231C4.22976 15.1286 4.08668 15.1879 3.9375 15.1879ZM14.0625 15.1035C13.9133 15.1035 13.7702 15.0443 13.6648 14.9388C13.5593 14.8333 13.5 14.6902 13.5 14.541V13.416C13.5 13.2668 13.5593 13.1238 13.6648 13.0183C13.7702 12.9128 13.9133 12.8535 14.0625 12.8535C14.2117 12.8535 14.3548 12.9128 14.4602 13.0183C14.5657 13.1238 14.625 13.2668 14.625 13.416V14.541C14.625 14.6902 14.5657 14.8333 14.4602 14.9388C14.3548 15.0443 14.2117 15.1035 14.0625 15.1035Z" fill="#649AE9"/>
</svg>
