<svg width="40" height="40" viewBox="0 0 40 40" fill="none" xmlns="http://www.w3.org/2000/svg">
<path d="M34.997 0H16.655C15.3303 0.00448118 14.0611 0.532704 13.1244 1.46942C12.1877 2.40613 11.6595 3.6753 11.655 5V15H26.661C27.9871 15 29.2589 15.5268 30.1965 16.4645C31.1342 17.4021 31.661 18.6739 31.661 20C31.661 21.3261 31.1342 22.5979 30.1965 23.5355C29.2589 24.4732 27.9871 25 26.661 25H11.655V35C11.6595 36.3247 12.1877 37.5939 13.1244 38.5306C14.0611 39.4673 15.3303 39.9955 16.655 40H34.995C36.3197 39.9955 37.5889 39.4673 38.5256 38.5306C39.4623 37.5939 39.9905 36.3247 39.995 35V5C39.9905 3.67564 39.4626 2.40677 38.5263 1.47012C37.59 0.533464 36.3214 0.00500797 34.997 0Z" fill="#649AE9"/>
<path d="M5.67001 21.675H26.661C27.1033 21.675 27.5274 21.4993 27.8401 21.1866C28.1528 20.8739 28.3285 20.4497 28.3285 20.0075C28.3285 19.5653 28.1528 19.1411 27.8401 18.8284C27.5274 18.5157 27.1033 18.34 26.661 18.34H5.67001L7.83701 16.189C7.99243 16.0335 8.1157 15.8489 8.19978 15.6458C8.28387 15.4427 8.32713 15.225 8.32708 15.0051C8.32703 14.7853 8.28369 14.5676 8.19951 14.3645C8.11534 14.1614 7.99199 13.9769 7.83651 13.8215C7.68102 13.6661 7.49645 13.5428 7.29332 13.4587C7.09019 13.3746 6.8725 13.3314 6.65265 13.3314C6.43281 13.3315 6.21513 13.3748 6.01204 13.459C5.80895 13.5432 5.62443 13.6665 5.46901 13.822L0.469006 18.822C0.167723 19.1426 0 19.566 0 20.006C0 20.446 0.167723 20.8694 0.469006 21.19L5.46901 26.19C5.78825 26.494 6.21219 26.6635 6.65301 26.6635C7.09383 26.6635 7.51776 26.494 7.83701 26.19C8.14942 25.8751 8.32473 25.4496 8.32473 25.006C8.32473 24.5624 8.14942 24.1369 7.83701 23.822L5.67001 21.675Z" fill="#649AE9"/>
</svg>
