<svg width="18" height="40" viewBox="0 0 18 40" fill="none" xmlns="http://www.w3.org/2000/svg">
<path d="M2.70731 10.4115L0.0843576 19.7167C-0.477703 21.7509 1.93113 22.5449 2.51996 20.6357L4.86634 12.0531H5.52653L1.49397 27.1306H5.25889V38.461C5.25889 40.513 8.1138 40.513 8.1138 38.461V27.1306H9.00596V38.461C9.00596 40.513 11.7717 40.513 11.7717 38.461V27.1306H15.6436L11.5219 12.0531H12.2713L14.6176 20.6357C15.1975 22.5895 17.5885 21.7509 17.0532 19.7257L14.4303 10.4115C14.0734 9.35876 12.8066 7.50307 10.6832 7.41385H6.4633C4.26859 7.50307 3.01064 9.34092 2.70731 10.4115ZM11.8252 3.32776C11.8252 1.48991 10.362 0 8.55988 0C6.75772 0 5.29457 1.48991 5.29457 3.32776C5.29457 5.16561 6.75772 6.65551 8.55988 6.65551C10.362 6.65551 11.8252 5.16561 11.8252 3.32776Z" fill="#ECACE6"/>
</svg>
