<svg width="34" height="40" viewBox="0 0 34 40" fill="none" xmlns="http://www.w3.org/2000/svg">
<path d="M28.0696 0H25.2628V40H28.0696V0Z" fill="#ACC6EC"/>
<path d="M26.6667 40H32.2811C32.6535 40 33.0105 39.8521 33.2738 39.5888C33.5371 39.3256 33.685 38.9685 33.685 38.5962V1.40384C33.685 1.03152 33.5371 0.674445 33.2738 0.411175C33.0105 0.147904 32.6535 0 32.2811 0H26.6667V40Z" fill="#ACC6EC"/>
<path d="M31.5788 11.228H30.1749V40H31.5788V11.228Z" fill="white"/>
<path d="M31.5788 0H30.1749V6.31593H31.5788V0Z" fill="white"/>
<path d="M27.3681 40V0H2.80678C2.06238 0 1.34846 0.295714 0.822088 0.822087C0.295714 1.34846 0 2.06238 0 2.80678V37.1932C0 37.9376 0.295714 38.6515 0.822088 39.1779C1.34846 39.7043 2.06238 40 2.80678 40H27.3681Z" fill="#649AE9"/>
<path d="M2.10531 37.1932V2.80678C2.10531 2.06238 2.40102 1.34846 2.9274 0.822087C3.45377 0.295714 4.16769 0 4.91209 0H2.80678C2.06238 0 1.34846 0.295714 0.822088 0.822087C0.295714 1.34846 0 2.06238 0 2.80678V37.1932C0 37.9376 0.295714 38.6515 0.822088 39.1779C1.34846 39.7043 2.06238 40 2.80678 40H4.91209C4.16769 40 3.45377 39.7043 2.9274 39.1779C2.40102 38.6515 2.10531 37.9376 2.10531 37.1932Z" fill="#ACC6EC"/>
<path d="M16.8416 15.5559H14.0348V16.7253H16.8416V15.5559Z" fill="white"/>
<path d="M11.9295 16.1401H7.71887V17.544H11.9295V16.1401Z" fill="white"/>
<path d="M11.9304 0V7.71887L9.12271 4.91209L6.31593 7.71887V0H11.9304Z" fill="white"/>
<path d="M12.6319 18.9478H11.228V15.4386C11.2328 15.2514 11.2 15.065 11.1315 14.8906C11.0631 14.7162 10.9605 14.5573 10.8297 14.4232C10.699 14.289 10.5427 14.1824 10.37 14.1096C10.1974 14.0369 10.012 13.9994 9.82463 13.9994C9.6373 13.9994 9.45185 14.0369 9.27923 14.1096C9.10661 14.1824 8.9503 14.289 8.81952 14.4232C8.68873 14.5573 8.58612 14.7162 8.51772 14.8906C8.44932 15.065 8.41651 15.2514 8.42124 15.4386V18.9478H7.0174V15.4386C7.0174 14.6941 7.31316 13.9801 7.83962 13.4536C8.36608 12.9272 9.08011 12.6314 9.82463 12.6314C10.5692 12.6314 11.2832 12.9272 11.8096 13.4536C12.3361 13.9801 12.6319 14.6941 12.6319 15.4386V18.9478ZM23.1584 18.9478H18.2463C18.1117 18.9487 17.9796 18.9109 17.8659 18.8388C17.7522 18.7667 17.6616 18.6634 17.605 18.5412C17.5484 18.4191 17.5281 18.2832 17.5467 18.1498C17.5652 18.0164 17.6217 17.8912 17.7095 17.7891L20.9305 14.0312H17.544V12.6319H22.456C22.5907 12.6309 22.7228 12.6688 22.8365 12.7409C22.9502 12.813 23.0408 12.9163 23.0974 13.0384C23.154 13.1606 23.1742 13.2965 23.1557 13.4298C23.1372 13.5632 23.0807 13.6884 22.9929 13.7905L19.7718 17.5484H23.1584V18.9478Z" fill="white"/>
<path d="M21.0522 27.3681H9.12271V28.772H21.0522V27.3681Z" fill="white"/>
</svg>
