<svg width="26" height="26" viewBox="0 0 26 26" fill="none" xmlns="http://www.w3.org/2000/svg">
<path d="M13.7146 8.32634C12.1118 7.91128 10.476 8.87412 10.0609 10.477C9.9781 10.798 10.1712 11.1254 10.4922 11.2082C10.8132 11.291 11.1406 11.098 11.2234 10.777C11.3755 10.1851 11.8176 9.71084 12.3973 9.51755C13.3402 9.2032 14.3594 9.71282 14.6737 10.6557C14.988 11.5986 14.4785 12.6177 13.5355 12.932C12.8112 13.2012 12.338 13.901 12.3578 14.6734V15.4276C12.358 15.7588 12.6266 16.0272 12.9578 16.027C13.289 16.0267 13.558 15.7582 13.5578 15.427V14.6734C13.5416 14.4156 13.6867 14.1747 13.9223 14.0688C14.8809 13.745 15.6116 12.9595 15.8652 11.98C16.2803 10.3772 15.3174 8.74141 13.7146 8.32634ZM12.9576 17.0769C12.5433 17.0769 12.2076 17.4127 12.2076 17.8269C12.2076 18.2411 12.5433 18.5769 12.9576 18.5769C13.3718 18.5769 13.7076 18.2411 13.7076 17.8269C13.7076 17.4127 13.3718 17.0769 12.9576 17.0769ZM13 1C6.37261 1 1 6.37261 1 13C1 19.6274 6.37261 25 13 25C19.6242 24.9922 24.9922 19.6242 25 13C25 6.37261 19.6274 1 13 1ZM13 23.8C7.0353 23.8 2.2 18.9647 2.2 13C2.2 7.0353 7.0353 2.2 13 2.2C18.962 2.20652 23.7935 7.03801 23.8 13C23.8 18.9647 18.9647 23.8 13 23.8Z" fill="#081D3A" stroke="#081D3A" stroke-width="0.4"/>
</svg>
