<svg width="84" height="25" viewBox="0 0 84 25" fill="none" xmlns="http://www.w3.org/2000/svg">
<path fill-rule="evenodd" clip-rule="evenodd" d="M30.9472 24.8615H32.7402L28.6102 19.5415L32.5862 14.4995H30.7942L27.3362 18.9415H25.9082V14.4995H24.4082V24.8645H25.9082V20.1855H27.3502L30.9472 24.8615ZM33.8472 24.8615H35.2742V13.9395H33.8472V24.8615ZM44.2212 21.0245C44.2623 20.5321 44.1985 20.0366 44.0338 19.5707C43.8692 19.1048 43.6076 18.6791 43.2663 18.3219C42.925 17.9646 42.5118 17.6838 42.0539 17.4981C41.596 17.3123 41.104 17.2259 40.6102 17.2445C39.6221 17.3106 38.6966 17.7515 38.0227 18.4772C37.3489 19.2029 36.9776 20.1586 36.9847 21.1488C36.9919 22.1391 37.3769 23.0893 38.0612 23.8052C38.7454 24.5211 39.6773 24.9486 40.6662 25.0005C41.2972 25.0184 41.9227 24.8779 42.4854 24.5918C43.0481 24.3056 43.53 23.883 43.8872 23.3625L42.7882 22.7704C42.5427 23.1089 42.2205 23.3845 41.8481 23.5745C41.4756 23.7644 41.0633 23.8635 40.6452 23.8635C39.3452 23.8635 38.6302 22.9945 38.4892 21.6425H44.1892C44.2119 21.4379 44.2209 21.2322 44.2162 21.0265L44.2212 21.0245ZM40.6052 18.3784C41.8372 18.3784 42.6202 19.2325 42.7482 20.6605H38.4952C38.6212 19.2465 39.3832 18.3784 40.6102 18.3784H40.6052ZM47.9422 24.8615H49.3882L52.6262 17.3885H51.0712L48.6632 23.2245L46.2692 17.3885H44.7012L47.9502 24.8665L47.9422 24.8615ZM56.3612 17.2404C55.3008 17.1903 54.2619 17.5514 53.4612 18.2485L54.0922 19.1015C54.3465 18.8595 54.6468 18.6709 54.9751 18.5467C55.3035 18.4225 55.6534 18.3653 56.0042 18.3784C56.2695 18.3497 56.5379 18.3791 56.7907 18.4646C57.0435 18.5501 57.2747 18.6896 57.468 18.8734C57.6614 19.0573 57.8124 19.2811 57.9106 19.5293C58.0087 19.7775 58.0515 20.044 58.0362 20.3105V20.6454C57.4035 20.5089 56.7584 20.4385 56.1112 20.4355C54.2352 20.4355 52.9882 21.3595 52.9882 22.7585C52.9898 23.0762 53.0581 23.3902 53.1889 23.6798C53.3197 23.9694 53.51 24.2282 53.7474 24.4395C53.9848 24.6508 54.264 24.8097 54.5668 24.906C54.8697 25.0023 55.1894 25.0338 55.5052 24.9985C56.0212 25.0051 56.5295 24.8735 56.9775 24.6175C57.4256 24.3615 57.797 23.9903 58.0532 23.5424L58.0812 24.8585H59.4672V20.1584C59.4779 19.756 59.4033 19.3559 59.2481 18.9845C59.093 18.613 58.8609 18.2787 58.5672 18.0035C58.2734 17.7282 57.9247 17.5184 57.5439 17.3877C57.1632 17.2571 56.7591 17.2086 56.3582 17.2455L56.3612 17.2404ZM55.9172 23.9615C55.0082 23.9615 54.4902 23.4714 54.4902 22.7144C54.4902 21.9574 55.2042 21.4265 56.2962 21.4265C56.8849 21.4326 57.4713 21.4996 58.0462 21.6265C58.0619 21.9202 58.0191 22.214 57.9202 22.491C57.8212 22.768 57.6682 23.0226 57.47 23.2399C57.2718 23.4572 57.0324 23.6329 56.7656 23.7567C56.4988 23.8806 56.2101 23.9502 55.9162 23.9615H55.9172ZM69.1172 14.4955V18.5575H64.0312V14.4995H61.5682V24.8645H64.0332V20.5915H69.1152V24.8615H71.5662V14.4965L69.1172 14.4955ZM80.1372 24.8605H83.0212L80.3842 20.7945C80.9262 20.5309 81.3814 20.1179 81.6963 19.604C82.0112 19.0902 82.1725 18.497 82.1612 17.8945C82.1612 15.8645 80.6802 14.5055 78.4502 14.5055H73.8302V24.8705H76.2942V21.2704H77.9472L80.1372 24.8555V24.8605ZM76.3002 16.5294H78.1912C78.3777 16.5127 78.5655 16.5356 78.7424 16.5968C78.9193 16.658 79.0812 16.7559 79.2175 16.8843C79.3538 17.0126 79.4613 17.1684 79.5329 17.3413C79.6046 17.5142 79.6388 17.7004 79.6332 17.8875C79.6332 18.7005 78.9612 19.2455 77.9662 19.2455H76.2962L76.3002 16.5294Z" fill="#475569"/>
<path fill-rule="evenodd" clip-rule="evenodd" d="M0 21.2699V4.38086H6.868V24.9998H3.735C2.74586 24.9983 1.79763 24.6049 1.09782 23.9059C0.398021 23.2068 0.00365057 22.259 0.00100708 21.2699H0Z" fill="#649AE9"/>
<path fill-rule="evenodd" clip-rule="evenodd" d="M12.1732 23.7451L6.88422 18.4561C5.6011 17.1657 4.88086 15.4199 4.88086 13.6001C4.88086 11.7804 5.6011 10.0346 6.88422 8.74414L20.0732 21.9311L18.2592 23.7451C17.4505 24.5491 16.3566 25.0004 15.2162 25.0004C14.0759 25.0004 12.9819 24.5491 12.1732 23.7451Z" fill="#649AE9"/>
<path fill-rule="evenodd" clip-rule="evenodd" d="M6.87981 8.74509L11.2528 4.37109L16.1098 9.22809L6.88081 18.4571C5.59757 17.1668 4.87714 15.4211 4.87695 13.6013C4.87677 11.7815 5.59682 10.0356 6.87981 8.74509Z" fill="#ACC6EC"/>
<path fill-rule="evenodd" clip-rule="evenodd" d="M11.7306 13.6008L9.06562 16.2588C8.48379 16.8431 8.15714 17.6342 8.15714 18.4588C8.15714 19.2834 8.48379 20.0744 9.06562 20.6588L6.86562 18.4588C6.82462 18.4168 6.78262 18.3748 6.74262 18.3318C6.70262 18.2888 6.66263 18.2478 6.62263 18.2028L6.50663 18.0728C6.46963 18.0288 6.43062 17.9838 6.39562 17.9398L6.28762 17.8038L6.18763 17.6658C6.15363 17.6198 6.12062 17.5728 6.08762 17.5268L5.98763 17.3788C5.95663 17.3318 5.92562 17.2837 5.89562 17.2307C5.86562 17.1837 5.83663 17.1308 5.80863 17.0828C5.78063 17.0348 5.75063 16.9828 5.72463 16.9348C5.69863 16.8868 5.66963 16.8347 5.64463 16.7867L5.56763 16.6388C5.54263 16.5898 5.51862 16.5388 5.49462 16.4908C5.47062 16.4428 5.44863 16.3907 5.42663 16.3427C5.40463 16.2907 5.38262 16.2428 5.36162 16.1948C5.34062 16.1468 5.32162 16.0948 5.30062 16.0378C5.28162 15.9858 5.26262 15.9378 5.24462 15.8898L5.19163 15.7288L5.14263 15.5708L5.09862 15.4108C5.08362 15.3558 5.07062 15.3028 5.05762 15.2498C5.04462 15.1968 5.03262 15.1417 5.02062 15.0887C5.00862 15.0357 4.99863 14.9808 4.98763 14.9258C4.97663 14.8708 4.96663 14.8178 4.95763 14.7628C4.94863 14.7078 4.93962 14.6548 4.93262 14.5998C4.92362 14.5448 4.91762 14.4898 4.91062 14.4358L4.89263 14.2718L4.87963 14.1078C4.87963 14.0528 4.87262 13.9978 4.86962 13.9438V13.7798V13.2798C4.8678 13.2249 4.87116 13.17 4.87963 13.1158L4.89263 12.9518L4.91062 12.7878C4.91762 12.7328 4.92362 12.6777 4.93262 12.6237C4.94162 12.5697 4.94863 12.5158 4.95763 12.4608C4.96663 12.4058 4.97663 12.3528 4.98763 12.2978C4.99863 12.2428 5.00862 12.1898 5.02062 12.1348C5.03262 12.0798 5.04462 12.0278 5.05762 11.9738C5.07062 11.9198 5.08462 11.8668 5.09862 11.8138L5.14263 11.6537L5.19163 11.4958L5.24462 11.3378C5.26262 11.2848 5.28162 11.2328 5.30062 11.1808L5.36162 11.0258C5.38262 10.9738 5.40463 10.9258 5.42663 10.8708C5.44863 10.8158 5.47062 10.7707 5.49462 10.7227C5.51862 10.6747 5.54163 10.6228 5.56763 10.5748C5.59363 10.5268 5.61763 10.4748 5.64463 10.4268C5.67163 10.3788 5.69663 10.3267 5.72463 10.2787C5.75263 10.2307 5.77963 10.1788 5.80863 10.1308L5.89562 9.98276L5.98763 9.83475C6.01863 9.78775 6.05162 9.73976 6.08762 9.69376L6.18763 9.55276L6.28762 9.41476C6.32362 9.36876 6.35862 9.32475 6.39562 9.27975C6.43262 9.23475 6.46963 9.18976 6.50663 9.14676L6.62263 9.01477C6.66263 8.97177 6.70062 8.92874 6.74262 8.88574L6.86562 8.75977L11.7306 13.6008Z" fill="#5787E4"/>
<path d="M19.7116 4.74738C20.1318 2.96713 19.0292 1.18333 17.2489 0.76315C15.4687 0.342972 13.6849 1.44553 13.2647 3.22578C12.8445 5.00604 13.9471 6.78984 15.7273 7.21002C17.5076 7.6302 19.2914 6.52764 19.7116 4.74738Z" fill="#ACC6EC"/>
</svg>
