<svg width="40" height="41" viewBox="0 0 40 41" fill="none" xmlns="http://www.w3.org/2000/svg">
<path d="M36.223 19.575H4.527C3.13901 23.5022 3.25938 27.8049 4.86475 31.6484C6.47013 35.4918 9.44602 38.6018 13.215 40.375H27.575C31.3367 38.5949 34.3039 35.4819 35.9016 31.6391C37.4993 27.7964 37.6138 23.4974 36.223 19.575ZM9.975 34.775C9.81677 34.775 9.6621 34.7281 9.53054 34.6402C9.39898 34.5523 9.29645 34.4273 9.2359 34.2811C9.17535 34.135 9.1595 33.9741 9.19037 33.8189C9.22124 33.6637 9.29743 33.5212 9.40931 33.4093C9.5212 33.2974 9.66374 33.2212 9.81893 33.1904C9.97411 33.1595 10.135 33.1753 10.2811 33.2359C10.4273 33.2964 10.5523 33.399 10.6402 33.5305C10.7281 33.6621 10.775 33.8168 10.775 33.975C10.775 34.1872 10.6907 34.3907 10.5407 34.5407C10.3907 34.6907 10.1872 34.775 9.975 34.775ZM13.175 37.975C13.0168 37.975 12.8621 37.9281 12.7305 37.8402C12.599 37.7523 12.4964 37.6273 12.4359 37.4811C12.3753 37.335 12.3595 37.1741 12.3904 37.0189C12.4212 36.8637 12.4974 36.7212 12.6093 36.6093C12.7212 36.4974 12.8637 36.4212 13.0189 36.3904C13.1741 36.3595 13.335 36.3753 13.4811 36.4359C13.6273 36.4964 13.7523 36.599 13.8402 36.7305C13.9281 36.8621 13.975 37.0168 13.975 37.175C13.975 37.3872 13.8907 37.5907 13.7407 37.7407C13.5907 37.8907 13.3872 37.975 13.175 37.975ZM13.975 33.975C13.8168 33.975 13.6621 33.9281 13.5305 33.8402C13.399 33.7523 13.2964 33.6273 13.2359 33.4811C13.1753 33.335 13.1595 33.1741 13.1904 33.0189C13.2212 32.8637 13.2974 32.7212 13.4093 32.6093C13.5212 32.4974 13.6637 32.4212 13.8189 32.3904C13.9741 32.3595 14.135 32.3753 14.2811 32.4359C14.4273 32.4964 14.5523 32.599 14.6402 32.7305C14.7281 32.8621 14.775 33.0168 14.775 33.175C14.775 33.3872 14.6907 33.5907 14.5407 33.7407C14.3907 33.8907 14.1872 33.975 13.975 33.975ZM27.735 38.479L27.343 38.687C27.2284 38.7434 27.1027 38.7735 26.975 38.775C26.7952 38.7757 26.6204 38.7159 26.4787 38.605C26.3371 38.4942 26.237 38.3389 26.1944 38.1642C26.1519 37.9895 26.1695 37.8055 26.2444 37.642C26.3192 37.4785 26.447 37.345 26.607 37.263C26.727 37.207 26.839 37.143 26.951 37.079C27.1367 36.9729 27.3568 36.9449 27.5631 37.0012C27.7694 37.0574 27.9449 37.1933 28.051 37.379C28.1571 37.5647 28.1851 37.7848 28.1288 37.9911C28.0726 38.1974 27.9367 38.3729 27.751 38.479H27.735ZM30.679 36.375C30.5239 36.5188 30.3181 36.5953 30.1067 36.5878C29.8954 36.5803 29.6955 36.4894 29.551 36.335C29.4786 36.258 29.4221 36.1675 29.3849 36.0685C29.3477 35.9696 29.3304 35.8643 29.3342 35.7587C29.3379 35.653 29.3625 35.5492 29.4066 35.4531C29.4507 35.3571 29.5133 35.2707 29.591 35.199C31.9964 32.9811 33.5217 29.9704 33.887 26.719C33.8939 26.6109 33.9227 26.5053 33.9716 26.4087C34.0205 26.312 34.0886 26.2263 34.1716 26.1567C34.2546 26.0872 34.3509 26.0352 34.4546 26.004C34.5584 25.9727 34.6674 25.9629 34.775 25.975C34.8796 25.9869 34.9808 26.0194 35.0728 26.0705C35.1649 26.1216 35.2459 26.1904 35.3113 26.2729C35.3767 26.3554 35.4252 26.45 35.454 26.5512C35.4828 26.6525 35.4913 26.7584 35.479 26.863C35.079 30.5089 33.3742 33.8873 30.679 36.375ZM34.247 17.975H6.503L11.079 13.975H21.175V14.535C21.1691 14.933 21.2924 15.3222 21.5265 15.6442C21.7605 15.9661 22.0927 16.2035 22.4731 16.3207C22.8535 16.4379 23.2617 16.4285 23.6363 16.2941C24.011 16.1596 24.3319 15.9073 24.551 15.575L25.607 13.975H29.671L34.247 17.975Z" fill="#649AE9"/>
<path d="M39.335 9.991L23.271 0.375H34.295L39.335 9.991Z" fill="#649AE9"/>
<path d="M31.359 7.079L28.303 12.375H26.447L29.983 6.255L31.359 7.079Z" fill="#649AE9"/>
<path d="M17.559 12.375H15.711L12.239 6.375C12.0289 6.0111 11.727 5.70874 11.3633 5.49815C10.9997 5.28756 10.5872 5.17613 10.167 5.175H0.375V3.575H10.631C11.1922 3.57558 11.7433 3.72371 12.2291 4.00454C12.715 4.28537 13.1184 4.68902 13.399 5.175L17.559 12.375Z" fill="#649AE9"/>
</svg>
