<svg width="18" height="18" viewBox="0 0 18 18" fill="none" xmlns="http://www.w3.org/2000/svg">
<g clip-path="url(#clip0_14362_12753)">
<path d="M8.72567 0.000404619C5.85014 0.0318379 3.2081 1.82937 2.17793 4.60135C1.98763 5.11335 2.31087 5.66534 2.82203 5.8023L8.41064 7.29959L6.93096 12.8568H6.42874C6.31985 12.8568 6.21448 12.8178 6.1318 12.7469L2.12074 9.30987C1.88123 9.10458 1.57419 8.99363 1.25881 8.99975C0.892544 9.00693 0.546145 9.17051 0.307712 9.44862C-0.152182 9.98473 -0.0891509 10.8019 0.447079 11.2617L4.94767 15.1188C5.18071 15.3186 5.47753 15.4284 5.78449 15.4283H6.24654L5.66962 17.5955C5.62374 17.7671 5.72581 17.9434 5.8975 17.9891C6.06894 18.0346 6.2448 17.9326 6.29051 17.7612L6.91201 15.4283H14.8178L15.4393 17.7612C15.4501 17.802 15.4689 17.8403 15.4946 17.8739C15.5203 17.9074 15.5523 17.9356 15.5889 17.9567C15.6254 17.9779 15.6658 17.9917 15.7077 17.9972C15.7495 18.0028 15.7921 18 15.8329 17.9891C15.8737 17.9782 15.912 17.9594 15.9455 17.9338C15.9791 17.9081 16.0073 17.8761 16.0284 17.8395C16.0496 17.803 16.0633 17.7626 16.0689 17.7207C16.0744 17.6788 16.0717 17.6363 16.0608 17.5955L15.4832 15.4283H16.7143C17.4206 15.4283 18 14.8489 18 14.1426C18 13.4363 17.4206 12.8569 16.7143 12.8569H7.59709L9.03219 7.4662L14.6202 8.96348C15.1313 9.10046 15.6872 8.78383 15.7784 8.24528C16.3803 4.69059 14.1841 1.19344 10.6343 0.242329C10.1906 0.123432 9.74543 0.0498342 9.30344 0.0182055C9.11007 0.0043686 8.91737 -0.00169078 8.72567 0.000404619ZM8.73069 0.64201C8.9051 0.640173 9.08018 0.645677 9.25616 0.658333C9.65839 0.687259 10.0636 0.754685 10.4678 0.862993C13.7013 1.72947 15.6916 4.90497 15.1442 8.13791C15.1169 8.29922 14.961 8.38938 14.7863 8.34257L2.98844 5.18163C2.81374 5.13482 2.72365 4.9784 2.78065 4.82504C3.71773 2.30381 6.11462 0.669653 8.73069 0.64201ZM1.27139 9.64268C1.42935 9.63963 1.58279 9.69489 1.70268 9.79775L5.71374 13.2354C5.91282 13.4061 6.16659 13.4997 6.42878 13.4997H16.7144C17.0733 13.4997 17.3572 13.7838 17.3572 14.1426C17.3572 14.5014 17.0733 14.7855 16.7144 14.7855H5.78464C5.63101 14.7855 5.48254 14.7304 5.36592 14.6304L0.865337 10.7732C0.593303 10.5396 0.562745 10.1396 0.796282 9.86732C0.915675 9.72807 1.08797 9.64628 1.27139 9.64268Z" fill="#ADADAE" stroke="#ADADAE" stroke-width="0.25"/>
</g>
<defs>
<clipPath id="clip0_14362_12753">
<rect width="18" height="18" fill="white"/>
</clipPath>
</defs>
</svg>
