<svg width="18" height="18" viewBox="0 0 18 18" fill="none" xmlns="http://www.w3.org/2000/svg">
<g clip-path="url(#clip0_14362_12781)">
<path d="M5.62012 16.8975C5.62012 17.0195 5.58462 17.1371 5.52051 17.2354L5.44629 17.3271C5.33674 17.4388 5.19045 17.5 5.04004 17.5H1.44043C1.32759 17.5 1.21652 17.4656 1.12207 17.4014L1.0332 17.3271C0.923297 17.215 0.860352 17.0603 0.860352 16.8975V16.6484C0.890576 16.652 0.920747 16.6561 0.951172 16.6582L1.0791 16.6631H2.53809C2.5489 16.6785 2.55944 16.6942 2.57129 16.709L2.62793 16.7725C2.7884 16.9362 3.00885 17.0303 3.24023 17.0303C3.44262 17.0302 3.63638 16.9587 3.78906 16.8311L3.85156 16.7725C3.8849 16.7384 3.91445 16.7015 3.94141 16.6631H5.40137C5.47477 16.6629 5.54768 16.6569 5.62012 16.6484V16.8975ZM1.44043 14.0918H5.04004C5.19055 14.0918 5.33671 14.1528 5.44629 14.2646C5.55613 14.3768 5.62006 14.5306 5.62012 14.6934C5.62012 14.7424 5.60512 14.7887 5.58008 14.8271L5.55176 14.8633C5.50981 14.906 5.45523 14.9286 5.40039 14.9287H3.94141C3.93059 14.9133 3.92006 14.8976 3.9082 14.8828L3.85156 14.8184L3.78906 14.7607C3.65811 14.6512 3.49708 14.5828 3.32617 14.5654L3.24023 14.5605C3.03777 14.5605 2.84414 14.6331 2.69141 14.7607L2.62793 14.8184C2.59443 14.8526 2.56514 14.89 2.53809 14.9287H1.08008C1.03886 14.9287 0.997636 14.9159 0.961914 14.8916L0.927734 14.8633C0.88536 14.82 0.860352 14.7588 0.860352 14.6934C0.860398 14.5712 0.895674 14.4538 0.959961 14.3555L1.0332 14.2646C1.14279 14.1528 1.2899 14.0918 1.44043 14.0918Z" stroke="#ADADAE"/>
<path d="M2.52051 12.4229H3.96094C4.04284 12.4229 4.12308 12.4477 4.19141 12.4941L4.25586 12.5479C4.33524 12.6289 4.38078 12.7403 4.38086 12.8574V13.5928C4.38082 13.6026 4.37842 13.6117 4.375 13.6201L4.36133 13.6426C4.3496 13.6545 4.33422 13.6602 4.32031 13.6602C4.30655 13.66 4.29187 13.6544 4.28027 13.6426C4.2684 13.6305 4.26083 13.6124 4.26074 13.5928V12.5576H2.2207V13.5928C2.22062 13.6124 2.21305 13.6305 2.20117 13.6426C2.18955 13.6544 2.17491 13.6601 2.16113 13.6602C2.15409 13.6602 2.14658 13.6582 2.13965 13.6553L2.12012 13.6426C2.10824 13.6305 2.10067 13.6124 2.10059 13.5928V12.8574C2.10065 12.7696 2.12653 12.6852 2.17285 12.6143L2.22559 12.5479C2.30477 12.4671 2.4112 12.4229 2.52051 12.4229Z" stroke="#ADADAE" stroke-width="0.6"/>
<path d="M13.3203 14.9932C13.7452 14.9932 14.1003 15.3465 14.1006 15.7949C14.1006 16.2436 13.7454 16.5976 13.3203 16.5977C12.8952 16.5977 12.54 16.2436 12.54 15.7949C12.5403 15.3465 12.8954 14.9932 13.3203 14.9932Z" stroke="#ADADAE" stroke-width="0.6"/>
<path d="M9 9.85059C9.42491 9.85063 9.78002 10.2039 9.78027 10.6523C9.78027 11.101 9.42506 11.455 9 11.4551C8.5749 11.4551 8.21973 11.101 8.21973 10.6523C8.21998 10.2039 8.57505 9.85059 9 9.85059Z" stroke="#ADADAE" stroke-width="0.6"/>
<path d="M4.67969 4.70801C5.1046 4.70805 5.45971 5.06132 5.45996 5.50977C5.45996 5.95844 5.10475 6.31246 4.67969 6.3125C4.25459 6.3125 3.89941 5.95846 3.89941 5.50977C3.89967 5.0613 4.25474 4.70801 4.67969 4.70801Z" stroke="#ADADAE" stroke-width="0.6"/>
<path d="M16.5605 4.70801C16.9855 4.70805 17.3406 5.06132 17.3408 5.50977C17.3408 5.95844 16.9856 6.31246 16.5605 6.3125C16.1354 6.3125 15.7803 5.95846 15.7803 5.50977C15.7805 5.0613 16.1356 4.70801 16.5605 4.70801Z" stroke="#ADADAE" stroke-width="0.6"/>
<path d="M16.5596 0.299805C16.5664 0.299851 16.5733 0.301827 16.5801 0.304688L16.5996 0.317383C16.6115 0.329535 16.6191 0.347456 16.6191 0.367188V4.4082C16.6191 4.41791 16.6176 4.42723 16.6143 4.43555L16.5996 4.45801C16.588 4.46989 16.5734 4.47549 16.5596 4.47559C16.5526 4.47559 16.5449 4.47457 16.5381 4.47168L16.5186 4.45801C16.5067 4.44583 16.499 4.4279 16.499 4.4082V0.367188C16.499 0.357389 16.5015 0.348218 16.5049 0.339844L16.5186 0.317383C16.5243 0.311474 16.5313 0.307584 16.5381 0.304688L16.5596 0.299805Z" stroke="#ADADAE" stroke-width="0.6"/>
<path d="M16.2588 2.47949L14.7002 1.79785L16.2588 0.888672V2.47949Z" stroke="#ADADAE" stroke-width="0.6"/>
</g>
<defs>
<clipPath id="clip0_14362_12781">
<rect width="18" height="18" fill="white"/>
</clipPath>
</defs>
</svg>
