<svg width="42" height="42" viewBox="0 0 42 42" fill="none" xmlns="http://www.w3.org/2000/svg">
<path d="M6.24811 22.3122H26.2506C26.5987 22.3122 26.9326 22.1739 27.1787 21.9278C27.4248 21.6816 27.5631 21.3478 27.5631 20.9997C27.5631 20.6516 27.4248 20.3178 27.1787 20.0716C26.9326 19.8255 26.5987 19.6872 26.2506 19.6872H6.24811L11.3406 15.4478C11.6086 15.225 11.7772 14.9049 11.8092 14.5578C11.8412 14.2108 11.734 13.8652 11.5112 13.5972C11.4009 13.4645 11.2656 13.3548 11.1129 13.2744C10.9602 13.194 10.7931 13.1444 10.6213 13.1286C10.2742 13.0966 9.92865 13.2038 9.66061 13.4266L1.78561 19.9891C1.63699 20.1122 1.51735 20.2666 1.43524 20.4413C1.35312 20.616 1.31055 20.8067 1.31055 20.9997C1.31055 21.1927 1.35312 21.3834 1.43524 21.558C1.51735 21.7327 1.63699 21.8872 1.78561 22.0103L9.66061 28.5728C9.89675 28.7685 10.1939 28.8753 10.5006 28.8747C10.6934 28.875 10.884 28.8328 11.0586 28.7512C11.2333 28.6695 11.3878 28.5503 11.5112 28.4022C11.6218 28.2696 11.705 28.1164 11.7563 27.9516C11.8075 27.7867 11.8257 27.6134 11.8099 27.4415C11.794 27.2696 11.7444 27.1025 11.6639 26.9498C11.5834 26.7971 11.4735 26.6617 11.3406 26.5516L6.24811 22.3122Z" fill="#ADADAE"/>
<path d="M26.2507 6.5625C23.4418 6.56293 20.6941 7.38268 18.3442 8.92132C15.9943 10.46 14.1442 12.6507 13.0207 15.225C12.9512 15.3835 12.9137 15.5542 12.9104 15.7272C12.9071 15.9002 12.9381 16.0722 13.0015 16.2332C13.0649 16.3943 13.1596 16.5412 13.28 16.6654C13.4004 16.7897 13.5442 16.889 13.7032 16.9575C14.0218 17.0938 14.3814 17.0985 14.7035 16.9706C15.0257 16.8428 15.2841 16.5927 15.4226 16.275C16.5081 13.7878 18.4169 11.7501 20.8281 10.5048C23.2393 9.25938 26.0057 8.88221 28.6623 9.43667C31.3189 9.99113 33.7035 11.4434 35.4152 13.5493C37.127 15.6551 38.0614 18.2862 38.0614 21C38.0614 23.7138 37.127 26.3449 35.4152 28.4507C33.7035 30.5566 31.3189 32.0089 28.6623 32.5633C26.0057 33.1178 23.2393 32.7406 20.8281 31.4952C18.4169 30.2499 16.5081 28.2122 15.4226 25.725C15.2841 25.4073 15.0257 25.1572 14.7035 25.0294C14.3814 24.9015 14.0218 24.9062 13.7032 25.0425C13.5442 25.111 13.4004 25.2103 13.28 25.3346C13.1596 25.4588 13.0649 25.6057 13.0015 25.7668C12.9381 25.9278 12.9071 26.0998 12.9104 26.2728C12.9137 26.4458 12.9512 26.6165 13.0207 26.775C14.0619 29.1607 15.7287 31.2206 17.8448 32.7365C19.9608 34.2524 22.4474 35.1681 25.0412 35.3866C27.6351 35.605 30.2397 35.1182 32.5795 33.9775C34.9193 32.8368 36.9072 31.0848 38.3327 28.9068C39.7583 26.7289 40.5685 24.206 40.6777 21.6053C40.7868 19.0045 40.1908 16.4227 38.9527 14.1329C37.7146 11.8432 35.8804 9.93081 33.6444 8.59814C31.4084 7.26547 28.8537 6.56211 26.2507 6.5625Z" fill="#ADADAE"/>
</svg>
