<svg width="15" height="40" viewBox="0 0 15 40" fill="none" xmlns="http://www.w3.org/2000/svg">
<path d="M7.49956 6.66032C9.33873 6.66925 10.8297 5.17826 10.8297 3.33016C10.8297 1.49098 9.33873 0 7.49956 0C5.66038 0 4.1694 1.49098 4.1694 3.33016C4.1694 5.16934 5.66038 6.66032 7.49956 6.66032ZM10.8386 7.41027H4.16047C1.64276 7.41027 0 9.62443 0 11.7314V21.8737C0 23.8379 2.76769 23.8379 2.76769 21.8737V12.4993H3.30338V37.9977C3.30338 40.7119 7.05315 40.6226 7.14243 37.9977V23.3022H7.85668V38.0067C8.00845 40.7922 11.6957 40.5244 11.6957 37.9977V12.4993H12.1421V21.8737C12.1421 23.8379 14.9991 23.8379 14.9991 21.8737V11.7314C14.9991 9.63336 13.3474 7.41027 10.8386 7.41027Z" fill="#ACC6EC"/>
</svg>
