<svg width="4" height="16" viewBox="0 0 4 16" fill="none" xmlns="http://www.w3.org/2000/svg">
<path d="M-0.000855923 7.99957C-0.000855923 7.01774 0.795079 6.2218 1.77692 6.2218C2.75875 6.2218 3.55469 7.01774 3.55469 7.99957C3.55469 8.98141 2.75875 9.77734 1.77692 9.77734C0.795079 9.77734 -0.000855923 8.98141 -0.000855923 7.99957Z" fill="#707070"/>
<path d="M-0.000855923 1.77887C-0.000855923 0.797033 0.795079 0.0010972 1.77692 0.0010972C2.75875 0.0010972 3.55469 0.797033 3.55469 1.77887C3.55469 2.76071 2.75875 3.55664 1.77692 3.55664C0.795079 3.55664 -0.000855923 2.76071 -0.000855923 1.77887Z" fill="#707070"/>
<path d="M-0.000855923 14.2222C-0.000855923 13.2404 0.795079 12.4445 1.77692 12.4445C2.75875 12.4445 3.55469 13.2404 3.55469 14.2222C3.55469 15.2041 2.75875 16 1.77692 16C0.795079 16 -0.000855923 15.2041 -0.000855923 14.2222Z" fill="#707070"/>
</svg>
