<svg width="24" height="25" viewBox="0 0 24 25" fill="none" xmlns="http://www.w3.org/2000/svg">
<path d="M8.05494 22.8518C8.55421 23.4784 9.2874 23.884 10.0922 23.9787C10.8971 24.0734 11.7072 23.8495 12.3433 23.3564C12.5389 23.2106 12.7149 23.041 12.8672 22.8518M2.00083 15.7871V15.5681C2.03295 14.9202 2.2406 14.2925 2.60236 13.7496C3.2045 13.0975 3.6167 12.2983 3.79571 11.436C3.79571 10.7695 3.79571 10.0935 3.85393 9.42703C4.15469 6.21842 7.32728 4 10.4611 4H10.5387C13.6725 4 16.845 6.21842 17.1555 9.42703C17.2137 10.0935 17.1555 10.7695 17.204 11.436C17.3854 12.3003 17.7972 13.1019 18.3974 13.7591C18.7618 14.2972 18.9698 14.9227 18.9989 15.5681V15.7776C19.0206 16.648 18.7208 17.4968 18.1548 18.1674C17.407 18.9515 16.3921 19.4393 15.3024 19.5384C12.107 19.8812 8.88303 19.8812 5.68762 19.5384C4.59914 19.435 3.58576 18.9479 2.83521 18.1674C2.278 17.4963 1.98224 16.6526 2.00083 15.7871Z" stroke="#081D3A" stroke-width="1.5" stroke-linecap="round" stroke-linejoin="round"/>
<circle cx="18" cy="5" r="4" fill="#E9647F"/>
</svg>
