<svg width="49" height="41" viewBox="0 0 49 41" fill="none" xmlns="http://www.w3.org/2000/svg">
<path d="M48.2065 35.2267H46.7034V32.1218C46.7034 31.7878 46.4301 31.5145 46.096 31.5145H38.4665V29.2446C38.4665 29.2218 38.4589 29.2066 38.4513 29.1838C40.0987 28.903 41.3513 27.4757 41.3513 25.7525C41.3513 24.0292 40.0987 22.602 38.4513 22.3211C38.4513 22.2983 38.4665 22.2831 38.4665 22.2603V19.7475C38.4665 19.4135 38.1932 19.1402 37.8592 19.1402H28.643V16.9007H24.9004V11.7764H34.0406C34.5189 11.7764 34.9061 11.3892 34.9061 10.9109V1.06466C34.9061 0.586389 34.5189 0.199219 34.0406 0.199219H14.553C14.0748 0.199219 13.6876 0.586389 13.6876 1.06466V10.9033C13.6876 11.3816 14.0748 11.7688 14.553 11.7688H23.6781V16.9007H19.9431V19.1402H10.7269C10.3929 19.1402 10.1196 19.4135 10.1196 19.7475V22.2603C10.1196 22.2831 10.1272 22.2983 10.1348 22.3211C8.48738 22.602 7.23477 24.0292 7.23477 25.7525C7.23477 27.4757 8.48738 28.903 10.1348 29.1838C10.1348 29.2066 10.1196 29.2218 10.1196 29.2446V31.5145H2.49004C2.15601 31.5145 1.88271 31.7878 1.88271 32.1218V35.2267H0.379579C0.167015 35.2267 0 35.3938 0 35.6063V39.8196C0 40.0322 0.167015 40.1992 0.379579 40.1992H4.5929C4.80547 40.1992 4.97248 40.0322 4.97248 39.8196V35.6063C4.97248 35.3938 4.80547 35.2267 4.5929 35.2267H3.09736V32.7291H18.364V35.2267H16.8609C16.6483 35.2267 16.4813 35.3938 16.4813 35.6063V39.8196C16.4813 40.0322 16.6483 40.1992 16.8609 40.1992H21.0742C21.2868 40.1992 21.4538 40.0322 21.4538 39.8196V35.6063C21.4538 35.3938 21.2868 35.2267 21.0742 35.2267H19.5711V32.1218C19.5711 31.7878 19.2978 31.5145 18.9638 31.5145H11.3342V29.2446C11.3342 29.2218 11.3266 29.2066 11.319 29.1838C12.9588 28.903 14.219 27.4757 14.219 25.7525C14.219 24.0292 12.9664 22.602 11.319 22.3211C11.319 22.2983 11.3342 22.2831 11.3342 22.2603V20.3548H19.9431V22.5944H28.643V20.3548H37.2519V22.2603C37.2519 22.2831 37.2594 22.2983 37.267 22.3211C35.6273 22.602 34.3671 24.0292 34.3671 25.7525C34.3671 27.4757 35.6197 28.903 37.267 29.1838C37.267 29.2066 37.2519 29.2218 37.2519 29.2446V31.5145H29.6147C29.2807 31.5145 29.0074 31.7878 29.0074 32.1218V35.2267H27.5043C27.2917 35.2267 27.1247 35.3938 27.1247 35.6063V39.8196C27.1247 40.0322 27.2917 40.1992 27.5043 40.1992H31.7176C31.9302 40.1992 32.0972 40.0322 32.0972 39.8196V35.6063C32.0972 35.3938 31.9302 35.2267 31.7176 35.2267H30.2145V32.7291H45.4811V35.2267H43.978C43.7654 35.2267 43.5984 35.3938 43.5984 35.6063V39.8196C43.5984 40.0322 43.7654 40.1992 43.978 40.1992H48.1913C48.4039 40.1992 48.5709 40.0322 48.5709 39.8196V35.6063C48.5861 35.4013 48.4191 35.2267 48.2065 35.2267ZM29.4781 4.97432C30.0399 4.97432 30.4953 5.42981 30.4953 5.99159C30.4953 6.55337 30.0399 7.00886 29.4781 7.00886C28.9163 7.00886 28.4608 6.55337 28.4608 5.99159C28.4608 5.42981 28.9163 4.97432 29.4781 4.97432ZM19.108 7.00886C18.5462 7.00886 18.0907 6.55337 18.0907 5.99159C18.0907 5.42981 18.5462 4.97432 19.108 4.97432C19.6698 4.97432 20.1253 5.42981 20.1253 5.99159C20.1253 6.55337 19.6698 7.00886 19.108 7.00886ZM23.2758 5.99159C23.2758 5.42981 23.7313 4.97432 24.293 4.97432C24.8548 4.97432 25.3103 5.42981 25.3103 5.99159C25.3103 6.55337 24.8548 7.00886 24.293 7.00886C23.7313 7.00886 23.2758 6.55337 23.2758 5.99159Z" fill="#649AE9"/>
</svg>
