<svg width="18" height="18" viewBox="0 0 18 18" fill="none" xmlns="http://www.w3.org/2000/svg">
<g clip-path="url(#clip0_14362_23123)">
<path fill-rule="evenodd" clip-rule="evenodd" d="M16.6057 9.53831V4.12372C16.6057 4.05206 16.5798 3.98333 16.5338 3.93266C16.4878 3.88198 16.4254 3.85352 16.3604 3.85352H1.64373C1.57867 3.85352 1.51628 3.88198 1.47028 3.93266C1.42428 3.98333 1.39844 4.05206 1.39844 4.12372V9.5601C1.39844 9.70924 1.50834 9.8303 1.64373 9.8303C1.70876 9.83025 1.77112 9.80176 1.8171 9.7511C1.86308 9.70044 1.88892 9.63174 1.88895 9.5601V4.39393H16.1151V9.53831C16.1151 9.60995 16.141 9.67864 16.187 9.72929C16.233 9.77995 16.2954 9.80842 16.3604 9.80845C16.4958 9.80845 16.6057 9.68739 16.6057 9.53831Z" fill="#ADADAE" stroke="#ADADAE" stroke-width="0.25"/>
<path fill-rule="evenodd" clip-rule="evenodd" d="M18 8.98113C18 8.93712 17.9902 8.89378 17.9716 8.85488C17.9529 8.81597 17.9259 8.78268 17.8929 8.75789C17.8598 8.73311 17.8218 8.71758 17.7821 8.71266C17.7424 8.70774 17.7022 8.71358 17.6651 8.72966L9 12.4789L0.334938 8.72966C0.297753 8.71356 0.257559 8.70771 0.217854 8.71263C0.178149 8.71754 0.140136 8.73306 0.10712 8.75785C0.0741041 8.78264 0.0470864 8.81594 0.0284172 8.85485C0.00974796 8.89377 -7.29745e-06 8.93712 4.09573e-09 8.98113V15.4266C-7.72642e-06 15.7645 0.060404 16.0991 0.177786 16.4113C0.295168 16.7235 0.467221 17.0071 0.684121 17.2461C0.901021 17.485 1.15852 17.6746 1.44192 17.8039C1.72531 17.9332 2.02905 17.9997 2.3358 17.9997H15.6641C15.9709 17.9997 16.2746 17.9332 16.5581 17.8039C16.8415 17.6746 17.099 17.4851 17.3159 17.2461C17.5328 17.0072 17.7048 16.7235 17.8222 16.4113C17.9396 16.0991 18 15.7645 18 15.4266V8.98113ZM17.5094 9.37759V15.4266C17.5094 15.6936 17.4617 15.9579 17.369 16.2045C17.2763 16.4512 17.1403 16.6753 16.969 16.864C16.7976 17.0528 16.5942 17.2025 16.3703 17.3047C16.1464 17.4068 15.9065 17.4594 15.6641 17.4594H2.3358C2.09347 17.4594 1.85351 17.4068 1.62963 17.3046C1.40575 17.2025 1.20232 17.0528 1.03097 16.864C0.859617 16.6752 0.723695 16.4512 0.630964 16.2045C0.538233 15.9579 0.490508 15.6936 0.490516 15.4266V9.37759L8.91029 13.0207C8.96798 13.0457 9.03202 13.0457 9.08965 13.0207L17.5094 9.37759Z" fill="#ADADAE" stroke="#ADADAE" stroke-width="0.25"/>
<path fill-rule="evenodd" clip-rule="evenodd" d="M0.490516 8.98127V6.8724C0.490513 6.51676 0.575212 6.16734 0.736153 5.85905C0.897095 5.55075 1.12865 5.29437 1.40768 5.1155L1.74179 4.90132C1.79798 4.86524 1.83888 4.80607 1.85549 4.7368C1.8721 4.66753 1.86307 4.59384 1.83039 4.5319C1.79765 4.46999 1.74394 4.42493 1.68106 4.40662C1.61818 4.38831 1.55127 4.39824 1.49504 4.43424L1.16092 4.64849C0.807724 4.87491 0.514632 5.19945 0.310918 5.58969C0.107203 5.97994 -5.25186e-06 6.42223 1.92962e-10 6.8724V8.98127C1.92962e-10 9.13041 0.1099 9.25148 0.245229 9.25148C0.380617 9.25148 0.490516 9.13041 0.490516 8.98127ZM2.59439 4.35474L8.15029 0.792895C8.67566 0.456092 9.32216 0.456546 9.85018 0.793219C11.1913 1.64832 13.7008 3.20213 15.4605 4.3552C15.5164 4.3918 15.5832 4.40245 15.6462 4.38481C15.7093 4.36717 15.7634 4.32267 15.7967 4.26111C15.8299 4.19951 15.8396 4.12591 15.8235 4.05646C15.8075 3.98702 15.7671 3.92743 15.7112 3.89078C13.95 2.73668 11.4382 1.18138 10.0959 0.32556C9.41493 -0.108639 8.58112 -0.108509 7.90353 0.325884L2.34763 3.88767C2.29144 3.92374 2.25055 3.98291 2.23393 4.05218C2.21732 4.12145 2.22635 4.19515 2.25904 4.25709C2.29178 4.31899 2.34548 4.36405 2.40837 4.38236C2.47125 4.40068 2.53815 4.39074 2.59439 4.35474ZM16.2755 4.89775C16.3788 4.96792 16.4819 5.03875 16.5845 5.11024C17.1122 5.4783 17.5094 6.14549 17.5094 6.8724V8.98127C17.5094 9.13041 17.6193 9.25148 17.7547 9.25148C17.8901 9.25148 18 9.13041 18 8.98127V6.8724C18 5.95945 17.5097 5.11595 16.8469 4.65367C16.7426 4.58106 16.638 4.50911 16.533 4.43781C16.4776 4.40024 16.411 4.38842 16.3477 4.40494C16.2844 4.42147 16.2296 4.46498 16.1955 4.52593C16.1614 4.58694 16.1506 4.66036 16.1656 4.73007C16.1806 4.79979 16.2201 4.86009 16.2755 4.89775ZM3.17761 10.124V8.13628C4.28562 8.01016 5.16734 7.03879 5.28184 5.81828H12.7181C12.8327 7.03885 13.7144 8.01016 14.8224 8.13628L14.8223 10.143C14.8223 10.2922 14.9322 10.4132 15.0676 10.4132C15.203 10.4132 15.3129 10.2922 15.3129 10.143V7.87995C15.3129 7.8083 15.287 7.73959 15.241 7.68893C15.195 7.63827 15.1327 7.60981 15.0676 7.60981C14.0347 7.60981 13.196 6.68597 13.196 5.54808C13.196 5.47643 13.1702 5.40772 13.1242 5.35706C13.0782 5.30639 13.0158 5.27793 12.9508 5.27793H5.0492C4.98416 5.27793 4.92178 5.30639 4.87578 5.35705C4.82978 5.40771 4.80393 5.47642 4.80392 5.54808C4.80392 6.68597 3.96534 7.60981 2.93238 7.60981C2.90018 7.6098 2.86828 7.61678 2.83852 7.63035C2.80876 7.64392 2.78172 7.66382 2.75894 7.68891C2.73617 7.71399 2.7181 7.74378 2.70577 7.77656C2.69344 7.80934 2.6871 7.84447 2.6871 7.87995V10.124C2.68714 10.1957 2.713 10.2644 2.759 10.315C2.80499 10.3657 2.86735 10.3941 2.93238 10.3942C2.99741 10.3941 3.05977 10.3657 3.10575 10.315C3.15174 10.2644 3.17758 10.1957 3.17761 10.124Z" fill="#ADADAE" stroke="#ADADAE" stroke-width="0.25"/>
<path fill-rule="evenodd" clip-rule="evenodd" d="M9.00178 7.19336C7.89478 7.19336 6.99609 8.18334 6.99609 9.40281C6.99609 10.6222 7.89478 11.6122 9.00178 11.6122C10.1087 11.6122 11.0075 10.6222 11.0075 9.40281C11.0075 8.18334 10.1087 7.19336 9.00178 7.19336ZM9.00178 7.73371C9.838 7.73371 10.5169 8.48163 10.5169 9.40281C10.5169 10.324 9.838 11.0718 9.00178 11.0718C8.16555 11.0718 7.48661 10.324 7.48661 9.40281C7.48661 8.48163 8.16555 7.73371 9.00178 7.73371Z" fill="#ADADAE" stroke="#ADADAE" stroke-width="0.25"/>
</g>
<defs>
<clipPath id="clip0_14362_23123">
<rect width="18" height="18" fill="white"/>
</clipPath>
</defs>
</svg>
