<svg width="32" height="32" viewBox="0 0 32 32" fill="none" xmlns="http://www.w3.org/2000/svg">
<circle cx="16" cy="16" r="15.5" fill="#FBFCFD" stroke="#C6C6C6"/>
<path d="M24.2608 11.2941L21.5109 8.5442C21.152 8.20708 20.6817 8.01365 20.1894 8.0007C19.6972 7.98774 19.2174 8.15617 18.8412 8.47395L9.80862 17.5065C9.48422 17.8337 9.28223 18.2625 9.23656 18.7209L8.805 22.906C8.79148 23.053 8.81055 23.2012 8.86086 23.34C8.91117 23.4788 8.99147 23.6047 9.09605 23.7089C9.18983 23.802 9.30105 23.8755 9.42332 23.9255C9.5456 23.9754 9.67654 24.0007 9.80862 24H9.89895L14.0841 23.6186C14.5425 23.5729 14.9713 23.3709 15.2984 23.0465L24.331 14.0139C24.6816 13.6436 24.8711 13.1493 24.8579 12.6395C24.8447 12.1297 24.63 11.6459 24.2608 11.2941ZM13.9034 21.6114L10.8925 21.8924L11.1635 18.8815L16.834 13.2813L19.5438 15.9911L13.9034 21.6114ZM20.8485 14.6462L18.1588 11.9565L20.1158 9.94928L22.8557 12.6892L20.8485 14.6462Z" fill="#707070"/>
</svg>
