<svg width="18" height="18" viewBox="0 0 18 18" fill="none" xmlns="http://www.w3.org/2000/svg">
<g clip-path="url(#clip0_14362_23131)">
<path d="M9 6L10.8 7.8H13.5L11.7 9.6L12.6 12L9 10.8L5.4 12L6.3 9.6L4.5 7.8H7.2L9 6Z" fill="#ADADAE" stroke="#ADADAE" stroke-linejoin="round"/>
<path d="M13.5 0H18V18H0V0H4.5H13.5Z" stroke="#ADADAE" stroke-linejoin="round"/>
<path d="M4.5 0V1.2C4.5 1.51826 4.68964 1.82348 5.02721 2.04853C5.36477 2.27357 5.82261 2.4 6.3 2.4H11.7C12.1774 2.4 12.6352 2.27357 12.9728 2.04853C13.3104 1.82348 13.5 1.51826 13.5 1.2V0" stroke="#ADADAE" stroke-linejoin="round"/>
<path d="M6.30078 15.5996H11.7008" stroke="#ADADAE" stroke-linejoin="round"/>
</g>
<defs>
<clipPath id="clip0_14362_23131">
<rect width="18" height="18" fill="white"/>
</clipPath>
</defs>
</svg>
