<svg width="18" height="18" viewBox="0 0 18 18" fill="none" xmlns="http://www.w3.org/2000/svg">
<g clip-path="url(#clip0_14362_23098)">
<path d="M7.28571 6.85714C7.28571 6.51809 7.38626 6.18665 7.57462 5.90474C7.76299 5.62282 8.03073 5.4031 8.34397 5.27335C8.65722 5.1436 9.0019 5.10965 9.33444 5.1758C9.66698 5.24194 9.97244 5.40521 10.2122 5.64496C10.4519 5.88471 10.6152 6.19016 10.6813 6.5227C10.7475 6.85524 10.7135 7.19993 10.5838 7.51317C10.454 7.82642 10.2343 8.09415 9.95241 8.28252C9.67049 8.47089 9.33905 8.57143 9 8.57143C8.54534 8.57143 8.10931 8.39082 7.78782 8.06933C7.46633 7.74783 7.28571 7.3118 7.28571 6.85714ZM9 9C8.43168 9 7.88663 9.22576 7.48477 9.62763C7.08291 10.0295 6.85714 10.5745 6.85714 11.1429V12.4286C6.85714 12.5422 6.9023 12.6512 6.98267 12.7316C7.06304 12.812 7.17205 12.8571 7.28571 12.8571H10.7143C10.828 12.8571 10.937 12.812 11.0173 12.7316C11.0977 12.6512 11.1429 12.5422 11.1429 12.4286V11.1429C11.1429 10.5745 10.9171 10.0295 10.5152 9.62763C10.1134 9.22576 9.56832 9 9 9ZM18 9C18 9.11366 17.9548 9.22267 17.8745 9.30305C17.7941 9.38342 17.6851 9.42857 17.5714 9.42857H16.2857C16.1872 11.2152 15.4331 12.9026 14.1678 14.1678C12.9026 15.4331 11.2152 16.1872 9.42857 16.2857V17.5714C9.42857 17.6851 9.38342 17.7941 9.30305 17.8745C9.22267 17.9548 9.11366 18 9 18C8.88634 18 8.77733 17.9548 8.69695 17.8745C8.61658 17.7941 8.57143 17.6851 8.57143 17.5714V16.2857C6.78484 16.1872 5.09739 15.4331 3.83217 14.1678C2.56694 12.9026 1.81285 11.2152 1.71429 9.42857H0.428571C0.314907 9.42857 0.205898 9.38342 0.125526 9.30305C0.045153 9.22267 0 9.11366 0 9C0 8.88634 0.045153 8.77733 0.125526 8.69695C0.205898 8.61658 0.314907 8.57143 0.428571 8.57143H1.71429C1.81285 6.78484 2.56694 5.09739 3.83217 3.83217C5.09739 2.56694 6.78484 1.81285 8.57143 1.71429V0.428571C8.57143 0.314907 8.61658 0.205898 8.69695 0.125526C8.77733 0.045153 8.88634 0 9 0C9.11366 0 9.22267 0.045153 9.30305 0.125526C9.38342 0.205898 9.42857 0.314907 9.42857 0.428571V1.71429C11.2152 1.81285 12.9026 2.56694 14.1678 3.83217C15.4331 5.09739 16.1872 6.78484 16.2857 8.57143H17.5714C17.6851 8.57143 17.7941 8.61658 17.8745 8.69695C17.9548 8.77733 18 8.88634 18 9ZM15.4286 9.42857H14.1429C14.0292 9.42857 13.9202 9.38342 13.8398 9.30305C13.7594 9.22267 13.7143 9.11366 13.7143 9C13.7143 8.88634 13.7594 8.77733 13.8398 8.69695C13.9202 8.61658 14.0292 8.57143 14.1429 8.57143H15.4286C15.3331 7.01135 14.6704 5.54005 13.5652 4.43484C12.46 3.32963 10.9887 2.66685 9.42857 2.57143V3.85714C9.42857 3.97081 9.38342 4.07982 9.30305 4.16019C9.22267 4.24056 9.11366 4.28571 9 4.28571C8.88634 4.28571 8.77733 4.24056 8.69695 4.16019C8.61658 4.07982 8.57143 3.97081 8.57143 3.85714V2.57143C7.01135 2.66685 5.54005 3.32963 4.43484 4.43484C3.32963 5.54005 2.66685 7.01135 2.57143 8.57143H3.85714C3.97081 8.57143 4.07982 8.61658 4.16019 8.69695C4.24056 8.77733 4.28571 8.88634 4.28571 9C4.28571 9.11366 4.24056 9.22267 4.16019 9.30305C4.07982 9.38342 3.97081 9.42857 3.85714 9.42857H2.57143C2.66685 10.9887 3.32963 12.46 4.43484 13.5652C5.54005 14.6704 7.01135 15.3331 8.57143 15.4286V14.1429C8.57143 14.0292 8.61658 13.9202 8.69695 13.8398C8.77733 13.7594 8.88634 13.7143 9 13.7143C9.11366 13.7143 9.22267 13.7594 9.30305 13.8398C9.38342 13.9202 9.42857 14.0292 9.42857 14.1429V15.4286C10.9887 15.3331 12.46 14.6704 13.5652 13.5652C14.6704 12.46 15.3331 10.9887 15.4286 9.42857Z" fill="#ADADAE"/>
</g>
<defs>
<clipPath id="clip0_14362_23098">
<rect width="18" height="18" fill="white"/>
</clipPath>
</defs>
</svg>
