<svg width="29" height="40" viewBox="0 0 29 40" fill="none" xmlns="http://www.w3.org/2000/svg">
<path d="M4.45642 36.327C8.00996 39.7041 10.2946 40 14.0651 40C17.8356 40 20.2781 39.8378 23.8283 36.327C27.3786 32.8162 28.2716 29.8752 28.2672 25.9568C28.2672 21.2001 23.321 14.1971 19.0914 9.08213L21.7551 3.7699C21.8224 3.63576 21.8532 3.48631 21.8446 3.33651C21.8359 3.18671 21.7881 3.04181 21.7058 2.91631C20.7107 1.44891 19.1857 0.424226 17.451 0.0574766C16.7522 -0.0252882 16.0439 0.0309486 15.3669 0.222951C14.6899 0.414954 14.0576 0.738932 13.5063 1.17624C13.0199 0.749123 12.451 0.426345 11.8349 0.22788C11.2188 0.0294149 10.5685 -0.0405165 9.92425 0.0224123C9.06601 0.205284 8.25236 0.555957 7.53008 1.05428C6.80779 1.5526 6.1911 2.18875 5.71545 2.92617C5.63302 3.05666 5.58736 3.20701 5.58331 3.3613C5.57926 3.5156 5.61697 3.66813 5.69244 3.80277L8.88657 9.44373C4.72927 14.5324 0.0175158 21.3152 0.0175158 25.9579C-0.0848007 27.9108 0.262151 29.8611 1.03169 31.6589C1.80122 33.4567 2.97283 35.053 4.45642 36.327ZM7.45771 3.45432C8.10876 2.56887 9.06133 1.95227 10.1357 1.72084C10.6478 1.69718 11.1587 1.78944 11.6302 1.99075C12.1016 2.19205 12.5216 2.4972 12.8587 2.88343C13.0182 3.03623 13.2306 3.12143 13.4515 3.12121H13.5074C13.7119 3.12131 13.9097 3.04824 14.0651 2.91521C14.4728 2.50571 14.9646 2.18958 15.5064 1.98867C16.0482 1.78776 16.6272 1.70684 17.2034 1.75152C18.3052 1.98481 19.2897 2.5985 19.9844 3.485L17.4401 8.55288H10.3472L7.45771 3.45432Z" fill="#649AE9"/>
<path d="M16.4856 22.5415H14.1154L14.7061 23.5617H16.4856V22.5415ZM16.5316 26.7142C16.5162 26.5681 16.5046 26.4264 16.4965 26.289C16.4885 26.1517 16.4848 26.0224 16.4856 25.9011V24.3441H15.1586L16.5316 26.7142ZM13.3177 23.5617L12.7271 22.5415H10.8709V23.5617H13.3177ZM10.8326 19.2663C10.8428 19.3993 10.8515 19.5322 10.8589 19.6652C10.8662 19.7981 10.8702 19.9209 10.8709 20.0334V21.7515H12.2768L10.8326 19.2663ZM17.7128 22.5415V23.5617H19.0705V23.9759C19.0706 24.0238 19.0609 24.0713 19.0421 24.1154C19.0232 24.1595 18.9956 24.1992 18.9609 24.2323C18.923 24.2691 18.878 24.2978 18.8286 24.3166C18.7793 24.3355 18.7266 24.3441 18.6738 24.3419H17.7128V28.486H16.5502C16.4481 28.4895 16.3467 28.4684 16.2544 28.4247C16.1624 28.373 16.0825 28.3024 16.0199 28.2176L13.7703 24.3441H10.8709V28.486H9.64695V24.3441H8.28602V23.5617H9.64695V22.5415H8.28602V22.1197C8.28659 22.0723 8.29658 22.0256 8.31539 21.9821C8.3342 21.9387 8.36146 21.8994 8.39559 21.8666C8.43339 21.8293 8.47854 21.8003 8.52815 21.7814C8.57777 21.7626 8.63077 21.7543 8.68378 21.757H9.64695V17.5H10.8326C10.9311 17.4941 11.0297 17.511 11.1207 17.5493C11.2064 17.6018 11.2808 17.6707 11.3399 17.752L13.6629 21.7515H16.4856V17.4945H17.7128V21.7515H19.0705V22.5415H17.7128Z" fill="white"/>
</svg>
