<svg width="54" height="54" viewBox="0 0 54 54" fill="none" xmlns="http://www.w3.org/2000/svg">
<circle opacity="0.1" cx="27" cy="27" r="27" fill="#14B8A6"/>
<path d="M18.5845 40.8431C21.6016 43.7104 23.5413 43.9616 26.7426 43.9616C29.9439 43.9616 32.0177 43.8239 35.032 40.8431C38.0463 37.8623 38.8045 35.3652 38.8008 32.0383C38.8008 27.9997 34.6012 22.0539 31.0101 17.7111L33.2718 13.2008C33.3288 13.0869 33.355 12.96 33.3477 12.8328C33.3403 12.7056 33.2997 12.5826 33.2299 12.4761C32.385 11.2302 31.0902 10.3602 29.6174 10.0488C29.0241 9.97853 28.4227 10.0263 27.8479 10.1893C27.2731 10.3523 26.7362 10.6274 26.2682 10.9987C25.8552 10.636 25.3722 10.362 24.8491 10.1935C24.326 10.025 23.7738 9.9656 23.2269 10.019C22.4982 10.1743 21.8074 10.472 21.1941 10.8951C20.5809 11.3182 20.0573 11.8583 19.6534 12.4844C19.5834 12.5952 19.5447 12.7229 19.5412 12.8539C19.5378 12.9849 19.5698 13.1144 19.6339 13.2287L22.3458 18.0181C18.8161 22.3386 14.8157 28.0974 14.8157 32.0393C14.7288 33.6973 15.0234 35.3533 15.6767 36.8797C16.3301 38.4061 17.3248 39.7614 18.5845 40.8431ZM21.1327 12.9329C21.6854 12.1811 22.4942 11.6576 23.4064 11.4611C23.8412 11.441 24.2749 11.5193 24.6752 11.6902C25.0756 11.8611 25.4321 12.1202 25.7183 12.4481C25.8538 12.5779 26.0341 12.6502 26.2216 12.65H26.2691C26.4427 12.6501 26.6107 12.5881 26.7426 12.4751C27.0888 12.1274 27.5063 11.859 27.9663 11.6885C28.4264 11.5179 28.9179 11.4492 29.4071 11.4871C30.3426 11.6852 31.1785 12.2062 31.7683 12.9589L29.6081 17.2617H23.586L21.1327 12.9329Z" fill="#14B8A6"/>
<path d="M28.7977 29.1387H26.7854L27.2868 30.0048H28.7977V29.1387ZM28.8368 32.6814C28.8237 32.5574 28.8138 32.437 28.807 32.3204C28.8002 32.2038 28.7971 32.094 28.7977 31.9911V30.6691H27.671L28.8368 32.6814ZM26.1081 30.0048L25.6066 29.1387H24.0306V30.0048H26.1081ZM23.998 26.3579C24.0067 26.4708 24.0142 26.5836 24.0204 26.6965C24.0266 26.8094 24.03 26.9136 24.0306 27.0091V28.4679H25.2242L23.998 26.3579ZM29.8397 29.1387V30.0048H30.9924V30.3565C30.9924 30.3972 30.9842 30.4375 30.9683 30.4749C30.9523 30.5123 30.9288 30.5461 30.8993 30.5742C30.8671 30.6054 30.8289 30.6298 30.787 30.6458C30.7451 30.6618 30.7004 30.6691 30.6556 30.6672H29.8397V34.1858H28.8526C28.7659 34.1887 28.6797 34.1708 28.6014 34.1337C28.5233 34.0898 28.4555 34.0299 28.4023 33.9578L26.4923 30.6691H24.0306V34.1858H22.9914V30.6691H21.8359V30.0048H22.9914V29.1387H21.8359V28.7805C21.8364 28.7403 21.8449 28.7006 21.8609 28.6637C21.8768 28.6268 21.9 28.5934 21.929 28.5656C21.9611 28.5339 21.9994 28.5093 22.0415 28.4933C22.0836 28.4773 22.1286 28.4702 22.1737 28.4725H22.9914V24.8582H23.998C24.0817 24.8532 24.1654 24.8675 24.2427 24.9C24.3154 24.9447 24.3786 25.0031 24.4288 25.0721L26.4011 28.4679H28.7977V24.8535H29.8397V28.4679H30.9924V29.1387H29.8397Z" fill="white"/>
</svg>
