<svg width="40" height="40" viewBox="0 0 40 40" fill="none" xmlns="http://www.w3.org/2000/svg">
<circle cx="20" cy="20" r="19.5" stroke="#ADADAE"/>
<path d="M18.6588 11.0703C18.5463 11.0225 18.4309 11 18.3128 11C18.0709 11 17.8431 11.0956 17.6716 11.2644L13.2644 15.6716C13.0928 15.8431 13 16.0709 13 16.3128C13 16.5547 13.0928 16.7825 13.2644 16.9541C13.4359 17.1256 13.6638 17.2184 13.9056 17.2184C14.1475 17.2184 14.3753 17.1256 14.5469 16.9541L17.41 14.0909V28.0944C17.41 28.5922 17.815 29 18.3156 29C18.8134 29 19.2213 28.595 19.2213 28.0944V11.9056C19.2156 11.5372 18.9963 11.2109 18.6588 11.0703ZM26.9444 23.0487C26.7728 22.8772 26.545 22.7844 26.3031 22.7844C26.0613 22.7844 25.8334 22.8772 25.6619 23.0487L22.8016 25.9091V11.9056C22.8016 11.4078 22.3966 11 21.8959 11C21.3981 11 20.9903 11.405 20.9903 11.9056V28.0944C20.9903 28.4628 21.2097 28.7891 21.55 28.9297C21.6597 28.9747 21.7778 28.9972 21.8959 28.9972C22.1378 28.9972 22.3656 28.9044 22.5372 28.7328L26.9444 24.3256C27.1159 24.1541 27.2087 23.9262 27.2087 23.6844C27.2087 23.4453 27.1159 23.2175 26.9444 23.0487Z" fill="#707070"/>
</svg>
