<svg width="18" height="18" viewBox="0 0 18 18" fill="none" xmlns="http://www.w3.org/2000/svg">
<path d="M3 17V13M3 5V1M1 3H5M1 15H5M9.8 1.8L8.41264 5.40709C8.18704 5.99367 8.07424 6.28697 7.8988 6.53367C7.74336 6.75232 7.55232 6.94335 7.33367 7.09882C7.08697 7.27424 6.79367 7.38705 6.20709 7.61264L2.6 9L6.20709 10.3874C6.79367 10.613 7.08697 10.7258 7.33367 10.9012C7.55232 11.0566 7.74336 11.2477 7.8988 11.4663C8.07424 11.713 8.18704 12.0063 8.41264 12.5929L9.8 16.2L11.1874 12.5929C11.413 12.0063 11.5258 11.713 11.7012 11.4663C11.8566 11.2477 12.0477 11.0566 12.2663 10.9012C12.513 10.7258 12.8063 10.613 13.3929 10.3874L17 9L13.3929 7.61264C12.8063 7.38705 12.513 7.27424 12.2663 7.09882C12.0477 6.94335 11.8566 6.75232 11.7012 6.53367C11.5258 6.28697 11.413 5.99367 11.1874 5.40709L9.8 1.8Z" stroke="#649AE9" stroke-width="2" stroke-linecap="round" stroke-linejoin="round"/>
</svg>
