<svg width="33" height="32" viewBox="0 0 33 32" fill="none" xmlns="http://www.w3.org/2000/svg">
<circle cx="16.9609" cy="16" r="15.5" fill="#FBFCFD" stroke="#C6C6C6"/>
<path d="M23.8943 8H10.0276C9.74471 8 9.4734 8.11238 9.27336 8.31242C9.07332 8.51246 8.96094 8.78377 8.96094 9.06667V22.9333C8.96094 23.2162 9.07332 23.4875 9.27336 23.6876C9.4734 23.8876 9.74471 24 10.0276 24H23.8943C24.1772 24 24.4485 23.8876 24.6485 23.6876C24.8486 23.4875 24.9609 23.2162 24.9609 22.9333V9.06667C24.9609 8.78377 24.8486 8.51246 24.6485 8.31242C24.4485 8.11238 24.1772 8 23.8943 8ZM23.8943 22.9333H10.0276V9.06667H23.8943V22.9333ZM12.6943 16.5333H21.2276C21.3691 16.5333 21.5047 16.4771 21.6047 16.3771C21.7047 16.2771 21.7609 16.1414 21.7609 16C21.7609 15.8586 21.7047 15.7229 21.6047 15.6229C21.5047 15.5229 21.3691 15.4667 21.2276 15.4667H12.6943C12.5528 15.4667 12.4172 15.5229 12.3171 15.6229C12.2171 15.7229 12.1609 15.8586 12.1609 16C12.1609 16.1414 12.2171 16.2771 12.3171 16.3771C12.4172 16.4771 12.5528 16.5333 12.6943 16.5333ZM12.6943 13.3333H21.2276C21.3691 13.3333 21.5047 13.2771 21.6047 13.1771C21.7047 13.0771 21.7609 12.9414 21.7609 12.8C21.7609 12.6586 21.7047 12.5229 21.6047 12.4229C21.5047 12.3229 21.3691 12.2667 21.2276 12.2667H12.6943C12.5528 12.2667 12.4172 12.3229 12.3171 12.4229C12.2171 12.5229 12.1609 12.6586 12.1609 12.8C12.1609 12.9414 12.2171 13.0771 12.3171 13.1771C12.4172 13.2771 12.5528 13.3333 12.6943 13.3333ZM12.6943 19.7333H21.2276C21.3691 19.7333 21.5047 19.6771 21.6047 19.5771C21.7047 19.4771 21.7609 19.3414 21.7609 19.2C21.7609 19.0586 21.7047 18.9229 21.6047 18.8229C21.5047 18.7229 21.3691 18.6667 21.2276 18.6667H12.6943C12.5528 18.6667 12.4172 18.7229 12.3171 18.8229C12.2171 18.9229 12.1609 19.0586 12.1609 19.2C12.1609 19.3414 12.2171 19.4771 12.3171 19.5771C12.4172 19.6771 12.5528 19.7333 12.6943 19.7333Z" fill="#707070"/>
</svg>
