<svg width="54" height="54" viewBox="0 0 54 54" fill="none" xmlns="http://www.w3.org/2000/svg">
<circle opacity="0.1" cx="27" cy="27" r="27" fill="#7164E9"/>
<path d="M23 19H31V17H23V19ZM41 29V36.5C41 37.1875 40.7552 37.776 40.2656 38.2656C39.776 38.7552 39.1875 39 38.5 39H15.5C14.8125 39 14.224 38.7552 13.7344 38.2656C13.2448 37.776 13 37.1875 13 36.5V29H23.5V31.5C23.5 31.7708 23.599 32.0052 23.7969 32.2031C23.9948 32.401 24.2292 32.5 24.5 32.5H29.5C29.7708 32.5 30.0052 32.401 30.2031 32.2031C30.401 32.0052 30.5 31.7708 30.5 31.5V29H41ZM29 29V31H25V29H29ZM41 21.5V27.5H13V21.5C13 20.8125 13.2448 20.224 13.7344 19.7344C14.224 19.2448 14.8125 19 15.5 19H21V16.5C21 16.0833 21.1458 15.7292 21.4375 15.4375C21.7292 15.1458 22.0833 15 22.5 15H31.5C31.9167 15 32.2708 15.1458 32.5625 15.4375C32.8542 15.7292 33 16.0833 33 16.5V19H38.5C39.1875 19 39.776 19.2448 40.2656 19.7344C40.7552 20.224 41 20.8125 41 21.5Z" fill="#7164E9"/>
</svg>
