<svg width="54" height="54" viewBox="0 0 54 54" fill="none" xmlns="http://www.w3.org/2000/svg">
<circle opacity="0.1" cx="27" cy="27" r="27" fill="#E9647F"/>
<path d="M14.2871 25.2103C14.2741 25.1216 14.2741 25.0315 14.2871 24.9428V24.8597C14.3088 24.7621 14.3461 24.6686 14.3978 24.5829L16.2431 21.8149C16.3849 21.6265 16.5935 21.4994 16.826 21.4599C17.0585 21.4204 17.2973 21.4715 17.4934 21.6026C17.6894 21.7337 17.8278 21.9349 17.8802 22.1648C17.9325 22.3948 17.8948 22.6361 17.7748 22.8391L16.8521 24.177H19.8231V14.9227C19.8231 14.678 19.9203 14.4433 20.0933 14.2702C20.2663 14.0972 20.501 14 20.7457 14H37.3536H37.4459H37.5935C37.6747 14.0231 37.7523 14.0573 37.8242 14.1015H37.9072C37.9759 14.1631 38.035 14.2346 38.0825 14.3137C38.1059 14.3431 38.1275 14.3739 38.1471 14.406C38.24 14.5618 38.285 14.7415 38.2763 14.9227V35.2212C38.2754 35.335 38.2535 35.4476 38.2117 35.5534C38.1981 35.585 38.1827 35.6158 38.1656 35.6456C38.1331 35.7117 38.0928 35.7737 38.0456 35.8302L37.9626 35.9132C37.909 35.9598 37.8501 36.0001 37.7873 36.0332L37.6766 36.0885H37.6212L24.7039 39.7792C24.618 39.8108 24.5278 39.8294 24.4364 39.8345C24.1917 39.8345 23.957 39.7373 23.7839 39.5643C23.6109 39.3912 23.5137 39.1566 23.5137 38.9119V36.1439H20.7457C20.501 36.1439 20.2663 36.0467 20.0933 35.8736C19.9203 35.7006 19.8231 35.4659 19.8231 35.2212V25.9946H16.9351L17.8578 27.3325C17.9332 27.4327 17.9874 27.5473 18.017 27.6693C18.0466 27.7912 18.0511 27.9179 18.0301 28.0416C18.009 28.1653 17.963 28.2834 17.8948 28.3887C17.8266 28.494 17.7376 28.5843 17.6333 28.6541C17.529 28.7238 17.4116 28.7715 17.2882 28.7944C17.1648 28.8172 17.038 28.8146 16.9157 28.7867C16.7934 28.7589 16.678 28.7064 16.5766 28.6324C16.4752 28.5585 16.39 28.4646 16.3262 28.3566L14.4809 25.5886C14.4382 25.5105 14.4072 25.4266 14.3886 25.3395C14.3886 25.3395 14.2871 25.2196 14.2871 25.2103ZM21.6684 24.1493H23.5137V18.6133C23.5061 18.4062 23.5683 18.2026 23.6905 18.0352C23.8127 17.8678 23.9877 17.7465 24.1873 17.6906L30.7658 15.8453H21.6684V24.1493ZM21.6684 34.2985H23.5137V25.9946H21.6684V34.2985Z" fill="#E9647F"/>
</svg>
