<svg width="41" height="41" viewBox="0 0 41 41" fill="none" xmlns="http://www.w3.org/2000/svg">
<path d="M17.2917 33.7211C21.444 33.7242 25.4424 32.1492 28.4772 29.315L31.3982 32.2348L32.2332 31.3998L29.3125 28.4802C32.1473 25.4479 33.723 21.4511 33.7202 17.3C33.7202 8.24539 26.3504 0.878906 17.2918 0.878906C8.23322 0.878906 0.863281 8.24531 0.863281 17.2999C0.863281 26.3546 8.23297 33.7211 17.2917 33.7211ZM17.2917 3.19534C25.0724 3.19534 31.4025 9.52262 31.4025 17.2999C31.4025 25.0773 25.0724 31.405 17.2917 31.405C9.51096 31.405 3.18082 25.0776 3.18082 17.3003C3.18082 9.52296 9.51096 3.19534 17.2917 3.19534Z" fill="#649AE9"/>
<path d="M33.7614 30.7083L30.6886 33.7797L31.9199 35.0115L34.9926 31.94L33.7614 30.7083Z" fill="#649AE9"/>
<path d="M35.828 32.7748L32.7553 35.8462L37.1563 40.245C37.5646 40.6515 38.1176 40.8795 38.6938 40.8789C39.2701 40.8783 39.8225 40.6491 40.23 40.2417C40.2604 40.2118 40.2874 40.1838 40.3135 40.155C40.6827 39.7422 40.8801 39.2039 40.8651 38.6503C40.8501 38.0967 40.6239 37.5698 40.2328 37.1776L35.828 32.7748ZM15.8562 27.3088C15.8602 27.4228 15.9079 27.5308 15.9895 27.6104C16.0711 27.69 16.1802 27.7351 16.2942 27.7364C16.3518 27.7363 16.4088 27.7249 16.4619 27.7028C16.5151 27.6807 16.5633 27.6483 16.6039 27.6075C16.6446 27.5668 16.6768 27.5184 16.6987 27.4652C16.7206 27.4119 16.7318 27.3549 16.7316 27.2973V19.5174C16.7316 19.3608 16.7938 19.2106 16.9046 19.0999C17.0153 18.9892 17.1655 18.927 17.3221 18.927C17.4786 18.927 17.6288 18.9892 17.7395 19.0999C17.8503 19.2106 17.9125 19.3608 17.9125 19.5174V27.2973C17.9127 27.4135 17.9587 27.5248 18.0405 27.6072C18.1223 27.6896 18.2333 27.7364 18.3494 27.7375C18.4655 27.7385 18.5774 27.6937 18.6606 27.6127C18.7439 27.5318 18.7919 27.4213 18.7941 27.3052L19.0585 18.4327H15.5939L15.8562 27.3088ZM17.2799 9.6911C17.5807 9.69111 17.8693 9.57209 18.0826 9.36005C18.2959 9.148 18.4167 8.86016 18.4185 8.55937V7.87044C18.4185 7.56845 18.2986 7.27883 18.085 7.06529C17.8715 6.85175 17.5819 6.73179 17.2799 6.73179C16.9779 6.73179 16.6883 6.85175 16.4747 7.06529C16.2612 7.27883 16.1412 7.56845 16.1412 7.87044V8.55937C16.1431 8.86016 16.2638 9.148 16.4772 9.36005C16.6905 9.57209 16.9791 9.69111 17.2799 9.6911Z" fill="#649AE9"/>
<path d="M14.0032 18.6858C14.1997 18.6858 14.3698 18.4792 14.3698 18.2721V14.7554C14.3698 14.5988 14.432 14.4486 14.5427 14.3379C14.6534 14.2272 14.8036 14.1649 14.9602 14.1649C15.1168 14.1649 15.2669 14.2272 15.3777 14.3379C15.4884 14.4486 15.5506 14.5988 15.5506 14.7554V16.8704C15.5506 16.8911 15.5517 16.9041 15.5524 16.9255L15.5592 17.252H19.0932V14.7554C19.0932 14.5988 19.1554 14.4486 19.2661 14.3379C19.3769 14.2272 19.527 14.1649 19.6836 14.1649C19.8402 14.1649 19.9904 14.2272 20.1011 14.3379C20.2118 14.4486 20.274 14.5988 20.274 14.7554V16.8748C20.274 16.9055 20.2803 16.9367 20.2794 16.9686L20.274 17.1489V18.2978C20.2791 18.3951 20.3213 18.4867 20.3919 18.5538C20.4625 18.6209 20.5562 18.6583 20.6536 18.6583C20.751 18.6583 20.8447 18.6209 20.9153 18.5538C20.9859 18.4867 21.0281 18.3951 21.0331 18.2978V13.0053C21.0331 12.9854 21.0173 12.9653 21.0192 12.9455C21.0494 12.6269 20.9529 12.3092 20.7507 12.0611C20.5486 11.813 20.2569 11.6544 19.9388 11.6196C19.8989 11.6156 19.85 11.6009 19.8098 11.6009H19.1367L17.7255 12.9377C17.7211 12.9418 17.7165 12.9576 17.712 12.9615C17.7047 12.9679 17.6975 12.9743 17.6901 12.9802C17.6826 12.9862 17.6738 12.9929 17.6654 12.9989C17.6571 13.0049 17.6501 13.0099 17.6421 13.015C17.6341 13.0201 17.6247 13.0259 17.6158 13.031C17.607 13.0362 17.6001 13.04 17.592 13.0441C17.5839 13.0482 17.5732 13.0535 17.5637 13.0577C17.5558 13.0612 17.5479 13.0647 17.5399 13.0679C17.53 13.0718 17.52 13.0755 17.51 13.0788C17.5016 13.0815 17.4941 13.084 17.486 13.0864C17.4757 13.0893 17.4654 13.092 17.455 13.0944C17.4466 13.0963 17.4388 13.098 17.4305 13.0995C17.4202 13.1014 17.4098 13.1031 17.3992 13.1045C17.3908 13.1056 17.3824 13.1066 17.3739 13.1073C17.3637 13.1082 17.3533 13.1089 17.343 13.1092C17.3346 13.1092 17.3257 13.1097 17.317 13.1092C17.3069 13.1092 17.2969 13.1092 17.2868 13.1082C17.2768 13.1072 17.269 13.107 17.2602 13.1061C17.2513 13.1052 17.2406 13.1037 17.2308 13.1022C17.221 13.1007 17.2128 13.0993 17.2039 13.0975C17.195 13.0957 17.1848 13.0934 17.1753 13.0909C17.1659 13.0885 17.1576 13.0862 17.1487 13.0835C17.1399 13.0808 17.1299 13.0774 17.1205 13.074C17.111 13.0707 17.1036 13.0677 17.0952 13.0643C17.0868 13.0608 17.0765 13.0558 17.0672 13.0517C17.0593 13.0479 17.0512 13.0438 17.0434 13.0396C17.034 13.0346 17.0248 13.0291 17.0156 13.0235C17.0082 13.019 17.001 13.0141 16.9937 13.0093C16.9845 13.0031 16.9756 12.9958 16.9666 12.9891C16.9598 12.984 16.953 12.9772 16.9463 12.9716C16.9379 12.9645 16.9294 12.9539 16.921 12.9463C16.9174 12.943 16.9134 12.9334 16.9098 12.93L15.5561 11.6009H14.8338C14.4981 11.6268 14.1853 11.7809 13.9602 12.0312C13.735 12.2815 13.6148 12.6089 13.6245 12.9454C13.6266 12.9653 13.6112 12.9853 13.6112 13.0053V18.2988C13.6175 18.4003 13.661 18.4958 13.7333 18.5672C13.8056 18.6385 13.9017 18.6808 14.0032 18.6858Z" fill="#649AE9"/>
<path d="M17.2916 30.2242C24.4213 30.2242 30.2216 24.4265 30.2216 17.3004C30.2216 10.1742 24.4213 4.37624 17.2916 4.37624C10.162 4.37624 4.3616 10.1738 4.3616 17.3C4.3616 24.4262 10.1619 30.2242 17.2916 30.2242ZM12.4301 13.0331C12.4301 12.9639 12.4373 12.888 12.4373 12.8188C12.4455 12.1855 12.7005 11.5805 13.1482 11.1324C13.5958 10.6844 14.2006 10.4288 14.8339 10.4201H15.7964C15.8535 10.4245 15.9097 10.4364 15.9637 10.4555C15.654 10.2458 15.4005 9.96325 15.2256 9.63264C15.0506 9.30203 14.9596 8.93351 14.9604 8.55948V7.87055C14.9604 7.25539 15.2048 6.66542 15.6398 6.23043C16.0748 5.79545 16.6647 5.55107 17.2799 5.55107C17.8951 5.55107 18.485 5.79545 18.92 6.23043C19.355 6.66542 19.5994 7.25539 19.5994 7.87055V8.55948C19.5957 9.17374 19.3491 9.7616 18.9134 10.1946C18.4777 10.6276 17.8884 10.8706 17.2741 10.8705C16.907 10.8702 16.5452 10.7841 16.2174 10.6189L17.3289 11.6972L18.4991 10.5923C18.6073 10.486 18.7515 10.4245 18.9031 10.4198H19.8102C19.8898 10.4198 19.9874 10.4366 20.0666 10.4445C21.3613 10.5761 22.2984 11.7405 22.214 13.033V18.2979C22.2098 18.7083 22.0437 19.1004 21.7519 19.389C21.4601 19.6776 21.0663 19.8394 20.6559 19.8392C20.5018 19.8391 20.3485 19.8174 20.2004 19.7749L19.9751 27.3519C19.9652 27.6544 19.8707 27.9479 19.7024 28.1994C19.534 28.4508 19.2987 28.6501 19.0229 28.7746C18.7471 28.8991 18.4419 28.9438 18.142 28.9037C17.8421 28.8636 17.5594 28.7403 17.326 28.5478C17.0932 28.7403 16.8111 28.8638 16.5117 28.9043C16.2124 28.9449 15.9076 28.9008 15.632 28.7771C15.3563 28.6534 15.1208 28.4551 14.952 28.2045C14.7833 27.9539 14.688 27.6611 14.677 27.3592L14.4516 19.7766C14.3124 19.8228 14.1672 19.8484 14.0206 19.8525L14.0037 19.8664C13.5889 19.8616 13.1924 19.6951 12.8985 19.4024C12.6047 19.1097 12.4366 18.7138 12.4301 18.2991V13.0331Z" fill="#649AE9"/>
</svg>
